<svg id="ekwOoaWUFsb1" xmlns="http://www.w3.org/2000/svg" xmlns:xlink="http://www.w3.org/1999/xlink" viewBox="0 0 1600 900" shape-rendering="geometricPrecision" text-rendering="geometricPrecision">
<style><![CDATA[
#ekwOoaWUFsb4 {animation: ekwOoaWUFsb4_c_o 18000ms linear infinite alternate forwards}@keyframes ekwOoaWUFsb4_c_o { 0% {opacity: 1} 20% {opacity: 1} 22.222222% {opacity: 0} 100% {opacity: 0}} #ekwOoaWUFsb5_tr {animation: ekwOoaWUFsb5_tr__tr 18000ms linear infinite alternate forwards}@keyframes ekwOoaWUFsb5_tr__tr { 0% {transform: translate(351.4856px,241.521025px) rotate(0deg)} 19.444444% {transform: translate(351.4856px,241.521025px) rotate(0deg)} 32.222222% {transform: translate(351.4856px,241.521025px) rotate(65.50948deg)} 100% {transform: translate(351.4856px,241.521025px) rotate(65.50948deg)}} #ekwOoaWUFsb5_ts {animation: ekwOoaWUFsb5_ts__ts 18000ms linear infinite alternate forwards}@keyframes ekwOoaWUFsb5_ts__ts { 0% {transform: scale(0.872479,0.86428)} 19.444444% {transform: scale(0.872479,0.86428)} 32.222222% {transform: scale(3.44358,3.411202)} 100% {transform: scale(3.44358,3.411202)}} #ekwOoaWUFsb5 {animation: ekwOoaWUFsb5_c_o 18000ms linear infinite alternate forwards}@keyframes ekwOoaWUFsb5_c_o { 0% {opacity: 1} 20.555556% {opacity: 1} 26.666667% {opacity: 0} 100% {opacity: 0}} #ekwOoaWUFsb6 {animation: ekwOoaWUFsb6_c_o 18000ms linear infinite alternate forwards}@keyframes ekwOoaWUFsb6_c_o { 0% {opacity: 1} 20% {opacity: 1} 22.222222% {opacity: 0} 100% {opacity: 0}} #ekwOoaWUFsb18_to {animation: ekwOoaWUFsb18_to__to 18000ms linear infinite alternate forwards}@keyframes ekwOoaWUFsb18_to__to { 0% {offset-distance: 0%} 17.777778% {offset-distance: 0%} 32.222222% {offset-distance: 100%} 100% {offset-distance: 100%}} #ekwOoaWUFsb18_ts {animation: ekwOoaWUFsb18_ts__ts 18000ms linear infinite alternate forwards}@keyframes ekwOoaWUFsb18_ts__ts { 0% {transform: rotate(0.226636deg) scale(1,1)} 10% {transform: rotate(0.226636deg) scale(1,1)} 17.777778% {transform: rotate(0.226636deg) scale(1,1)} 32.222222% {transform: rotate(0.226636deg) scale(3.038215,3.899773)} 100% {transform: rotate(0.226636deg) scale(3.038215,3.899773)}} #ekwOoaWUFsb20_to {animation: ekwOoaWUFsb20_to__to 18000ms linear infinite alternate forwards}@keyframes ekwOoaWUFsb20_to__to { 0% {transform: translate(-368.298416px,340.950987px)} 2.777778% {transform: translate(342px,346.499985px)} 100% {transform: translate(342px,346.499985px)}} #ekwOoaWUFsb21_to {animation: ekwOoaWUFsb21_to__to 18000ms linear infinite alternate forwards}@keyframes ekwOoaWUFsb21_to__to { 0% {transform: translate(-366.776529px,292.685131px)} 2.222222% {transform: translate(342px,291.114517px)} 18.888889% {transform: translate(342.005988px,292.568977px)} 100% {transform: translate(342.005988px,292.568977px)}} #ekwOoaWUFsb22_to {animation: ekwOoaWUFsb22_to__to 18000ms linear infinite alternate forwards}@keyframes ekwOoaWUFsb22_to__to { 0% {transform: translate(-365.728364px,234.003239px)} 1.666667% {transform: translate(342px,235.730003px)} 100% {transform: translate(342px,235.730003px)}} #ekwOoaWUFsb23 {animation: ekwOoaWUFsb23_c_o 18000ms linear infinite alternate forwards}@keyframes ekwOoaWUFsb23_c_o { 0% {opacity: 1} 7.222222% {opacity: 1} 16.666667% {opacity: 0} 100% {opacity: 0}} #ekwOoaWUFsb24_to {animation: ekwOoaWUFsb24_to__to 18000ms linear infinite alternate forwards}@keyframes ekwOoaWUFsb24_to__to { 0% {offset-distance: 0%} 14.444444% {offset-distance: 0%} 17.777778% {offset-distance: 0%} 26.666667% {offset-distance: 100%} 100% {offset-distance: 100%}} #ekwOoaWUFsb24_ts {animation: ekwOoaWUFsb24_ts__ts 18000ms linear infinite alternate forwards}@keyframes ekwOoaWUFsb24_ts__ts { 0% {transform: scale(1,1)} 14.444444% {transform: scale(1,1)} 17.777778% {transform: scale(1,1)} 26.666667% {transform: scale(3.031542,5.190194)} 100% {transform: scale(3.031542,5.190194)}} #ekwOoaWUFsb26_to {animation: ekwOoaWUFsb26_to__to 18000ms linear infinite alternate forwards}@keyframes ekwOoaWUFsb26_to__to { 0% {transform: translate(-364.320403px,180.240715px)} 2.222222% {transform: translate(342px,180.344994px)} 29.444444% {transform: translate(342px,186.825747px)} 30.555556% {transform: translate(344.102541px,183.267232px)} 31.111111% {transform: translate(345.548609px,185.759932px)} 31.666667% {transform: translate(347.061753px,185.645487px)} 32.777778% {transform: translate(349.666038px,187.034355px)} 100% {transform: translate(349.666038px,187.034355px)}} #ekwOoaWUFsb27_to {animation: ekwOoaWUFsb27_to__to 18000ms linear infinite alternate forwards}@keyframes ekwOoaWUFsb27_to__to { 0% {transform: translate(-368.298416px,119.412501px)} 1.111111% {transform: translate(342px,124.961498px)} 100% {transform: translate(342px,124.961498px)}} #ekwOoaWUFsb30_to {animation: ekwOoaWUFsb30_to__to 18000ms linear infinite alternate forwards}@keyframes ekwOoaWUFsb30_to__to { 0% {transform: translate(136.800003px,93.267997px)} 10% {transform: translate(136.800003px,90.753319px)} 100% {transform: translate(136.800003px,90.753319px)}} #ekwOoaWUFsb30 {animation: ekwOoaWUFsb30_c_o 18000ms linear infinite alternate forwards}@keyframes ekwOoaWUFsb30_c_o { 0% {opacity: 0} 2.222222% {opacity: 0} 5.555556% {opacity: 1} 26.666667% {opacity: 1} 28.333333% {opacity: 0} 100% {opacity: 0}} #ekwOoaWUFsb32 {animation: ekwOoaWUFsb32_c_o 18000ms linear infinite alternate forwards}@keyframes ekwOoaWUFsb32_c_o { 0% {opacity: 0} 2.222222% {opacity: 1} 2.777778% {opacity: 1} 100% {opacity: 1}} #ekwOoaWUFsb33 {animation: ekwOoaWUFsb33_c_o 18000ms linear infinite alternate forwards}@keyframes ekwOoaWUFsb33_c_o { 0% {opacity: 0} 2.222222% {opacity: 1} 100% {opacity: 1}} #ekwOoaWUFsb34 {animation: ekwOoaWUFsb34_c_o 18000ms linear infinite alternate forwards}@keyframes ekwOoaWUFsb34_c_o { 0% {opacity: 0} 2.222222% {opacity: 1} 100% {opacity: 1}} #ekwOoaWUFsb35 {animation: ekwOoaWUFsb35_c_o 18000ms linear infinite alternate forwards}@keyframes ekwOoaWUFsb35_c_o { 0% {opacity: 0} 2.222222% {opacity: 1} 100% {opacity: 1}} #ekwOoaWUFsb36 {animation: ekwOoaWUFsb36_c_o 18000ms linear infinite alternate forwards}@keyframes ekwOoaWUFsb36_c_o { 0% {opacity: 0} 2.222222% {opacity: 1} 100% {opacity: 1}} #ekwOoaWUFsb37 {animation: ekwOoaWUFsb37_c_o 18000ms linear infinite alternate forwards}@keyframes ekwOoaWUFsb37_c_o { 0% {opacity: 0} 2.222222% {opacity: 1} 100% {opacity: 1}} #ekwOoaWUFsb38 {animation: ekwOoaWUFsb38_c_o 18000ms linear infinite alternate forwards}@keyframes ekwOoaWUFsb38_c_o { 0% {opacity: 0} 2.222222% {opacity: 1} 100% {opacity: 1}} #ekwOoaWUFsb39 {animation: ekwOoaWUFsb39_c_o 18000ms linear infinite alternate forwards}@keyframes ekwOoaWUFsb39_c_o { 0% {opacity: 0} 2.222222% {opacity: 1} 100% {opacity: 1}} #ekwOoaWUFsb40 {animation: ekwOoaWUFsb40_c_o 18000ms linear infinite alternate forwards}@keyframes ekwOoaWUFsb40_c_o { 0% {opacity: 0} 2.222222% {opacity: 1} 100% {opacity: 1}} #ekwOoaWUFsb41 {animation: ekwOoaWUFsb41_c_o 18000ms linear infinite alternate forwards}@keyframes ekwOoaWUFsb41_c_o { 0% {opacity: 0} 2.222222% {opacity: 1} 100% {opacity: 1}} #ekwOoaWUFsb42 {animation: ekwOoaWUFsb42_c_o 18000ms linear infinite alternate forwards}@keyframes ekwOoaWUFsb42_c_o { 0% {opacity: 0} 2.222222% {opacity: 1} 100% {opacity: 1}} #ekwOoaWUFsb43 {animation: ekwOoaWUFsb43_c_o 18000ms linear infinite alternate forwards}@keyframes ekwOoaWUFsb43_c_o { 0% {opacity: 0} 2.222222% {opacity: 1} 100% {opacity: 1}} #ekwOoaWUFsb44 {animation: ekwOoaWUFsb44_c_o 18000ms linear infinite alternate forwards}@keyframes ekwOoaWUFsb44_c_o { 0% {opacity: 0} 2.222222% {opacity: 1} 100% {opacity: 1}} #ekwOoaWUFsb45 {animation: ekwOoaWUFsb45_c_o 18000ms linear infinite alternate forwards}@keyframes ekwOoaWUFsb45_c_o { 0% {opacity: 0} 2.222222% {opacity: 1} 100% {opacity: 1}} #ekwOoaWUFsb46 {animation: ekwOoaWUFsb46_c_o 18000ms linear infinite alternate forwards}@keyframes ekwOoaWUFsb46_c_o { 0% {opacity: 0} 2.222222% {opacity: 1} 100% {opacity: 1}} #ekwOoaWUFsb47 {animation: ekwOoaWUFsb47_c_o 18000ms linear infinite alternate forwards}@keyframes ekwOoaWUFsb47_c_o { 0% {opacity: 0} 2.222222% {opacity: 1} 100% {opacity: 1}} #ekwOoaWUFsb48 {animation: ekwOoaWUFsb48_c_o 18000ms linear infinite alternate forwards}@keyframes ekwOoaWUFsb48_c_o { 0% {opacity: 0} 2.222222% {opacity: 1} 100% {opacity: 1}} #ekwOoaWUFsb49 {animation: ekwOoaWUFsb49_c_o 18000ms linear infinite alternate forwards}@keyframes ekwOoaWUFsb49_c_o { 0% {opacity: 0} 2.222222% {opacity: 1} 100% {opacity: 1}} #ekwOoaWUFsb50 {animation: ekwOoaWUFsb50_c_o 18000ms linear infinite alternate forwards}@keyframes ekwOoaWUFsb50_c_o { 0% {opacity: 0} 2.222222% {opacity: 1} 100% {opacity: 1}} #ekwOoaWUFsb51 {animation: ekwOoaWUFsb51_c_o 18000ms linear infinite alternate forwards}@keyframes ekwOoaWUFsb51_c_o { 0% {opacity: 0} 2.222222% {opacity: 1} 100% {opacity: 1}} #ekwOoaWUFsb52 {animation: ekwOoaWUFsb52_c_o 18000ms linear infinite alternate forwards}@keyframes ekwOoaWUFsb52_c_o { 0% {opacity: 0} 2.222222% {opacity: 1} 100% {opacity: 1}} #ekwOoaWUFsb53 {animation: ekwOoaWUFsb53_c_o 18000ms linear infinite alternate forwards}@keyframes ekwOoaWUFsb53_c_o { 0% {opacity: 0} 2.222222% {opacity: 1} 100% {opacity: 1}} #ekwOoaWUFsb54 {animation: ekwOoaWUFsb54_c_o 18000ms linear infinite alternate forwards}@keyframes ekwOoaWUFsb54_c_o { 0% {opacity: 0} 2.222222% {opacity: 1} 100% {opacity: 1}} #ekwOoaWUFsb55 {animation: ekwOoaWUFsb55_c_o 18000ms linear infinite alternate forwards}@keyframes ekwOoaWUFsb55_c_o { 0% {opacity: 0} 2.222222% {opacity: 1} 100% {opacity: 1}} #ekwOoaWUFsb56 {animation: ekwOoaWUFsb56_c_o 18000ms linear infinite alternate forwards}@keyframes ekwOoaWUFsb56_c_o { 0% {opacity: 0} 2.222222% {opacity: 1} 100% {opacity: 1}} #ekwOoaWUFsb57 {animation: ekwOoaWUFsb57_c_o 18000ms linear infinite alternate forwards}@keyframes ekwOoaWUFsb57_c_o { 0% {opacity: 0} 2.222222% {opacity: 1} 100% {opacity: 1}} #ekwOoaWUFsb58 {animation: ekwOoaWUFsb58_c_o 18000ms linear infinite alternate forwards}@keyframes ekwOoaWUFsb58_c_o { 0% {opacity: 0} 2.222222% {opacity: 1} 100% {opacity: 1}} #ekwOoaWUFsb59 {animation: ekwOoaWUFsb59_c_o 18000ms linear infinite alternate forwards}@keyframes ekwOoaWUFsb59_c_o { 0% {opacity: 0} 2.222222% {opacity: 1} 100% {opacity: 1}} #ekwOoaWUFsb60 {animation: ekwOoaWUFsb60_c_o 18000ms linear infinite alternate forwards}@keyframes ekwOoaWUFsb60_c_o { 0% {opacity: 0} 2.222222% {opacity: 1} 100% {opacity: 1}} #ekwOoaWUFsb61 {animation: ekwOoaWUFsb61_c_o 18000ms linear infinite alternate forwards}@keyframes ekwOoaWUFsb61_c_o { 0% {opacity: 0} 2.222222% {opacity: 1} 100% {opacity: 1}} #ekwOoaWUFsb62 {animation: ekwOoaWUFsb62_c_o 18000ms linear infinite alternate forwards}@keyframes ekwOoaWUFsb62_c_o { 0% {opacity: 0} 2.222222% {opacity: 1} 100% {opacity: 1}} #ekwOoaWUFsb63 {animation: ekwOoaWUFsb63_c_o 18000ms linear infinite alternate forwards}@keyframes ekwOoaWUFsb63_c_o { 0% {opacity: 0} 2.222222% {opacity: 1} 100% {opacity: 1}} #ekwOoaWUFsb64 {animation: ekwOoaWUFsb64_c_o 18000ms linear infinite alternate forwards}@keyframes ekwOoaWUFsb64_c_o { 0% {opacity: 0} 2.222222% {opacity: 1} 100% {opacity: 1}} #ekwOoaWUFsb65 {animation: ekwOoaWUFsb65_c_o 18000ms linear infinite alternate forwards}@keyframes ekwOoaWUFsb65_c_o { 0% {opacity: 0} 2.222222% {opacity: 1} 100% {opacity: 1}} #ekwOoaWUFsb66 {animation: ekwOoaWUFsb66_c_o 18000ms linear infinite alternate forwards}@keyframes ekwOoaWUFsb66_c_o { 0% {opacity: 0} 2.222222% {opacity: 1} 100% {opacity: 1}} #ekwOoaWUFsb67 {animation: ekwOoaWUFsb67_c_o 18000ms linear infinite alternate forwards}@keyframes ekwOoaWUFsb67_c_o { 0% {opacity: 0} 2.222222% {opacity: 1} 100% {opacity: 1}} #ekwOoaWUFsb68 {animation: ekwOoaWUFsb68_c_o 18000ms linear infinite alternate forwards}@keyframes ekwOoaWUFsb68_c_o { 0% {opacity: 0} 2.222222% {opacity: 1} 100% {opacity: 1}} #ekwOoaWUFsb69 {animation: ekwOoaWUFsb69_c_o 18000ms linear infinite alternate forwards}@keyframes ekwOoaWUFsb69_c_o { 0% {opacity: 0} 8.888889% {opacity: 1} 100% {opacity: 1}} #ekwOoaWUFsb70 {animation: ekwOoaWUFsb70_c_o 18000ms linear infinite alternate forwards}@keyframes ekwOoaWUFsb70_c_o { 0% {opacity: 0} 8.888889% {opacity: 1} 100% {opacity: 1}} #ekwOoaWUFsb71 {animation: ekwOoaWUFsb71_c_o 18000ms linear infinite alternate forwards}@keyframes ekwOoaWUFsb71_c_o { 0% {opacity: 0} 8.888889% {opacity: 1} 100% {opacity: 1}} #ekwOoaWUFsb72 {animation: ekwOoaWUFsb72_c_o 18000ms linear infinite alternate forwards}@keyframes ekwOoaWUFsb72_c_o { 0% {opacity: 0} 8.888889% {opacity: 1} 100% {opacity: 1}} #ekwOoaWUFsb73 {animation: ekwOoaWUFsb73_c_o 18000ms linear infinite alternate forwards}@keyframes ekwOoaWUFsb73_c_o { 0% {opacity: 0} 7.777778% {opacity: 1} 100% {opacity: 1}} #ekwOoaWUFsb74 {animation: ekwOoaWUFsb74_c_o 18000ms linear infinite alternate forwards}@keyframes ekwOoaWUFsb74_c_o { 0% {opacity: 0} 7.777778% {opacity: 1} 100% {opacity: 1}} #ekwOoaWUFsb75 {animation: ekwOoaWUFsb75_c_o 18000ms linear infinite alternate forwards}@keyframes ekwOoaWUFsb75_c_o { 0% {opacity: 0} 7.777778% {opacity: 1} 100% {opacity: 1}} #ekwOoaWUFsb76 {animation: ekwOoaWUFsb76_c_o 18000ms linear infinite alternate forwards}@keyframes ekwOoaWUFsb76_c_o { 0% {opacity: 0} 7.777778% {opacity: 1} 100% {opacity: 1}} #ekwOoaWUFsb77 {animation: ekwOoaWUFsb77_c_o 18000ms linear infinite alternate forwards}@keyframes ekwOoaWUFsb77_c_o { 0% {opacity: 0} 7.777778% {opacity: 1} 100% {opacity: 1}} #ekwOoaWUFsb78 {animation: ekwOoaWUFsb78_c_o 18000ms linear infinite alternate forwards}@keyframes ekwOoaWUFsb78_c_o { 0% {opacity: 0} 6.666667% {opacity: 1} 100% {opacity: 1}} #ekwOoaWUFsb79 {animation: ekwOoaWUFsb79_c_o 18000ms linear infinite alternate forwards}@keyframes ekwOoaWUFsb79_c_o { 0% {opacity: 0} 5.555556% {opacity: 1} 100% {opacity: 1}} #ekwOoaWUFsb80 {animation: ekwOoaWUFsb80_c_o 18000ms linear infinite alternate forwards}@keyframes ekwOoaWUFsb80_c_o { 0% {opacity: 0} 5.555556% {opacity: 1} 100% {opacity: 1}} #ekwOoaWUFsb81 {animation: ekwOoaWUFsb81_c_o 18000ms linear infinite alternate forwards}@keyframes ekwOoaWUFsb81_c_o { 0% {opacity: 0} 5.555556% {opacity: 1} 100% {opacity: 1}} #ekwOoaWUFsb82 {animation: ekwOoaWUFsb82_c_o 18000ms linear infinite alternate forwards}@keyframes ekwOoaWUFsb82_c_o { 0% {opacity: 0} 4.444444% {opacity: 1} 100% {opacity: 1}} #ekwOoaWUFsb87 {animation: ekwOoaWUFsb87_c_o 18000ms linear infinite alternate forwards}@keyframes ekwOoaWUFsb87_c_o { 0% {opacity: 1} 30% {opacity: 0} 41.111111% {opacity: 0} 100% {opacity: 0}}
]]></style>
<g transform="matrix(1.089948 0 0 1.008765-92.261358-365.197831)"><g transform="matrix(2.385992 0 0 2.385992 0.102499 358.157499)"><rect id="ekwOoaWUFsb4" width="795.002934" height="570.100789" rx="0" ry="0" transform="translate(-40.645746-43.170843)" stroke-width="0" stroke-miterlimit="1"/><g id="ekwOoaWUFsb5_tr" transform="translate(351.4856,241.521025) rotate(0)"><g id="ekwOoaWUFsb5_ts" transform="scale(0.872479,0.86428)"><g id="ekwOoaWUFsb5" transform="translate(-257.230705,-269.208351)"><g id="ekwOoaWUFsb6"><rect width="696.13228" height="508.999947" rx="0" ry="0" transform="matrix(1.266951 0 0 1.111971-176.002176-16.618229)" fill="#cc0404" stroke-width="0" stroke-miterlimit="1"/><ellipse rx="217.073507" ry="208.652552" transform="matrix(1.1846 0 0 1.188562 253.752628 272.927991)" fill="#fff" stroke-width="0" stroke-miterlimit="1"/></g><rect width="45.6" height="120.551505" rx="0" ry="0" transform="matrix(.740059 0.672542-.672542 0.740059 249.598805 75.947455)" stroke-width="0" stroke-miterlimit="1"/><rect width="45.6" height="120.551505" rx="0" ry="0" transform="matrix(.740059 0.672542-.672542 0.740059 227.131685 279.540497)" stroke-width="0" stroke-miterlimit="1"/><rect width="45.6" height="120.551505" rx="0" ry="0" transform="matrix(.736492 0.676447-.676447 0.736492 316.460089 360.403395)" stroke-width="0" stroke-miterlimit="1"/><rect width="45.6" height="120.551505" rx="0" ry="0" transform="matrix(.740059 0.672542-.672542 0.740059 338.736557 156.878601)" stroke-width="0" stroke-miterlimit="1"/><rect width="45.6" height="120.551505" rx="0" ry="0" transform="matrix(.67233-.740251 0.740251 0.67233 137.869499 198.773294)" stroke-width="0" stroke-miterlimit="1"/><rect width="45.6" height="120.551505" rx="0" ry="0" transform="matrix(.67261-.739997 0.739997 0.67261 341.600466 221.2409)" stroke-width="0" stroke-miterlimit="1"/><rect width="45.6" height="120.551505" rx="0" ry="0" transform="matrix(.675609-.73726 0.73726 0.675609 57.332237 287.310079)" stroke-width="0" stroke-miterlimit="1"/><rect width="45.6" height="120.551505" rx="0" ry="0" transform="matrix(.675609-.73726 0.73726 0.675609 261.091047 309.887743)" stroke-width="0" stroke-miterlimit="1"/><path d="M0.170435,-0.097026l54.845587.016385-.12692,55.307255-54.852179-.00332.133512-55.32032Z" transform="matrix(.614985 0.559457-.551986 0.606773 257.574299 246.018256)" stroke-width="0" stroke-miterlimit="1"/></g></g></g><g id="ekwOoaWUFsb18_to" style="offset-path:path('M342,291.114991C294.229093,532.433598,510.024624,858.088454,701.855582,992.639539');offset-rotate:0deg"><g id="ekwOoaWUFsb18_ts" transform="rotate(0.226636) scale(1,1)"><g transform="translate(-342,-291.11499)"><path d="M-2.559787,4.244399L706.616962,0l-.739439,284.745109-707.243292.953359L-2.559787,4.244399Z" transform="matrix(.999992 0.003956-.004771 1.206128-7.205043 217.39815)" fill="#fff" stroke-width="0" stroke-miterlimit="1"/><g id="ekwOoaWUFsb20_to" transform="translate(-368.298416,340.950987)"><rect width="684" height="27.691999" rx="0" ry="0" transform="translate(-342,-13.845993)" clip-rule="evenodd" fill="#030404" stroke-linejoin="round" stroke-miterlimit="1"/></g><g id="ekwOoaWUFsb21_to" transform="translate(-366.776529,292.685131)"><rect width="684" height="27.691" rx="0" ry="0" transform="scale(1,1.16845) translate(-342,-13.845505)" clip-rule="evenodd" fill="#030404" stroke-linejoin="round" stroke-miterlimit="1"/></g><g id="ekwOoaWUFsb22_to" transform="translate(-365.728364,234.003239)"><rect width="684" height="27.691999" rx="0" ry="0" transform="scale(1.000002,1.103692) translate(-342,-13.846)" clip-rule="evenodd" fill="#030404" stroke-linejoin="round" stroke-miterlimit="1"/></g></g></g></g><path id="ekwOoaWUFsb23" d="M-0.303742,-3.31841h65.13013l100.657923.020936l54.285131.041872l38.977751.043188c0,0,43.362047-.126136,43.362047-.126136l62.124598.049849l45.91429-.014251l35.182631.065569l41.860567-.18899l43.303361-.171289l29.56791-.116958l26.841792-.106174l26.736941-.10576L643.838346,-4.046l22.752613-.089999l17.405225-.068848-.078387,34.295343h-16.636966-21.836017-30.438085-27.980351-24.199222l-31.588302.070866h-43.75l-41.625-.000015h-38.1875l-44.125-.000016h-60c0,0-45.9375-.000015-45.9375-.000015s-38.5,0-38.5,0l-53.875.000015-100.0625-.000015-65.375.000023-.105096-33.479749Z" transform="translate(0 194.190994)" clip-rule="evenodd" fill="#0b25e6" stroke-linejoin="round" stroke-miterlimit="1"/><g id="ekwOoaWUFsb24_to" style="offset-path:path('M342,97.267997L342,97.267997C326.431773,-132.547923,4.863511,-472.16845,-337.163787,-569.322528');offset-rotate:0deg"><g id="ekwOoaWUFsb24_ts" transform="scale(1,1)"><g transform="translate(-342,-97.267996)"><rect width="727.867957" height="200.232219" rx="0" ry="0" transform="matrix(1.284927 0 0 0.997062-109.190126-5.837464)" fill="#fff" stroke-width="0" stroke-miterlimit="1"/><g id="ekwOoaWUFsb26_to" transform="translate(-364.320403,180.240715)"><rect width="684" height="27.691999" rx="0" ry="0" transform="scale(1,1.080197) translate(-342,-13.846001)" clip-rule="evenodd" fill="#030404" stroke-linejoin="round" stroke-miterlimit="1"/></g><g id="ekwOoaWUFsb27_to" transform="translate(-368.298416,119.412501)"><rect width="684" height="27.693001" rx="0" ry="0" transform="translate(-342,-13.8465)" clip-rule="evenodd" fill="#030404" stroke-linejoin="round" stroke-miterlimit="1"/></g><rect width="684" height="27.694" rx="0" ry="0" transform="translate(0 55.73)" clip-rule="evenodd" fill="#030404" stroke-linejoin="round" stroke-miterlimit="1"/><rect width="684" height="27.694" rx="0" ry="0" transform="translate(0 0.345)" clip-rule="evenodd" fill="#030404" stroke-linejoin="round" stroke-miterlimit="1"/><g id="ekwOoaWUFsb30_to" transform="translate(136.800003,93.267997)"><g id="ekwOoaWUFsb30" transform="translate(-136.800003,-97.267996)" opacity="0"><rect width="273.600006" height="193.845993" rx="0" ry="0" transform="translate(0 0.345)" clip-rule="evenodd" fill="#030404" stroke-linejoin="round" stroke-miterlimit="1"/><path id="ekwOoaWUFsb32" d="" opacity="0" clip-rule="evenodd" fill="#030404" stroke-linejoin="round" stroke-miterlimit="1"/><path id="ekwOoaWUFsb33" d="M159.6,26.656l-6.845,3.602l1.306-7.625-5.537-5.399l7.654-1.113L159.6,9.187l3.423,6.934l7.654,1.113-5.538,5.399l1.308,7.625-6.847-3.602Z" opacity="0" clip-rule="evenodd" fill="#fff" stroke-linejoin="round" stroke-miterlimit="1"/><path id="ekwOoaWUFsb34" d="M114,26.656l-6.845,3.602l1.306-7.625-5.537-5.399l7.654-1.113L114,9.187l3.423,6.934l7.653,1.113-5.537,5.399l1.307,7.625L114,26.656Z" opacity="0" clip-rule="evenodd" fill="#fff" stroke-linejoin="round" stroke-miterlimit="1"/><path id="ekwOoaWUFsb35" d="M68.4,26.656l-6.845,3.602l1.306-7.625-5.538-5.399l7.654-1.113L68.4,9.187l3.423,6.934l7.653,1.113-5.537,5.399l1.306,7.625L68.4,26.656Z" opacity="0" clip-rule="evenodd" fill="#fff" stroke-linejoin="round" stroke-miterlimit="1"/><path id="ekwOoaWUFsb36" d="M22.8,26.656l-6.846,3.602l1.307-7.625-5.537-5.399l7.653-1.113L22.8,9.187l3.423,6.934l7.654,1.113-5.539,5.399l1.309,7.625L22.8,26.656Z" opacity="0" clip-rule="evenodd" fill="#fff" stroke-linejoin="round" stroke-miterlimit="1"/><path id="ekwOoaWUFsb37" d="M205.199,26.656l-6.844,3.602l1.307-7.625-5.539-5.399l7.655-1.113l3.421-6.934l3.424,6.934l7.654,1.113-5.538,5.399l1.307,7.625-6.847-3.602Z" opacity="0" clip-rule="evenodd" fill="#fff" stroke-linejoin="round" stroke-miterlimit="1"/><path id="ekwOoaWUFsb38" d="M250.8,26.656l6.844,3.602-1.306-7.625l5.538-5.399-7.654-1.113L250.8,9.187l-3.423,6.934-7.654,1.113l5.538,5.399-1.307,7.625l6.846-3.602Z" opacity="0" clip-rule="evenodd" fill="#fff" stroke-linejoin="round" stroke-miterlimit="1"/><path id="ekwOoaWUFsb39" d="M22.8,181.761l6.846,3.6-1.308-7.622l5.539-5.402-7.654-1.113L22.8,164.29l-3.423,6.934-7.653,1.113l5.537,5.402-1.307,7.622l6.846-3.6Z" opacity="0" clip-rule="evenodd" fill="#fff" stroke-linejoin="round" stroke-miterlimit="1"/><path id="ekwOoaWUFsb40" d="M68.399,181.761l6.846,3.6-1.306-7.622l5.537-5.402-7.654-1.113-3.423-6.934-3.422,6.934-7.654,1.113l5.538,5.402-1.307,7.622l6.845-3.6Z" opacity="0" clip-rule="evenodd" fill="#fff" stroke-linejoin="round" stroke-miterlimit="1"/><path id="ekwOoaWUFsb41" d="M114,181.761l6.845,3.6-1.306-7.622l5.537-5.402-7.653-1.113L114,164.29l-3.422,6.934-7.654,1.113l5.537,5.402-1.307,7.622l6.846-3.6Z" opacity="0" clip-rule="evenodd" fill="#fff" stroke-linejoin="round" stroke-miterlimit="1"/><path id="ekwOoaWUFsb42" d="M159.6,181.761l6.845,3.6-1.307-7.622l5.538-5.402-7.654-1.113-3.422-6.934-3.423,6.934-7.654,1.113l5.538,5.402-1.308,7.622l6.847-3.6Z" opacity="0" clip-rule="evenodd" fill="#fff" stroke-linejoin="round" stroke-miterlimit="1"/><path id="ekwOoaWUFsb43" d="M205.199,181.761l6.845,3.6-1.305-7.622l5.537-5.402-7.653-1.113-3.424-6.934-3.422,6.934-7.654,1.113l5.538,5.402-1.309,7.622l6.847-3.6Z" opacity="0" clip-rule="evenodd" fill="#fff" stroke-linejoin="round" stroke-miterlimit="1"/><path id="ekwOoaWUFsb44" d="M250.8,181.761l-6.845,3.6l1.306-7.622-5.538-5.402l7.654-1.113l3.423-6.934l3.422,6.934l7.654,1.113-5.538,5.402l1.308,7.622-6.846-3.6Z" opacity="0" clip-rule="evenodd" fill="#fff" stroke-linejoin="round" stroke-miterlimit="1"/><path id="ekwOoaWUFsb45" d="M22.8,142.611l6.846,3.601-1.308-7.625l5.539-5.4-7.654-1.111L22.8,125.14l-3.423,6.936-7.653,1.111l5.537,5.4-1.307,7.625l6.846-3.601Z" opacity="0" clip-rule="evenodd" fill="#fff" stroke-linejoin="round" stroke-miterlimit="1"/><path id="ekwOoaWUFsb46" d="M68.399,142.611l6.846,3.601-1.306-7.625l5.537-5.4-7.654-1.111-3.423-6.936-3.422,6.936-7.654,1.111l5.538,5.4-1.307,7.625l6.845-3.601Z" opacity="0" clip-rule="evenodd" fill="#fff" stroke-linejoin="round" stroke-miterlimit="1"/><path id="ekwOoaWUFsb47" d="M114,142.611l6.845,3.601-1.306-7.625l5.537-5.4-7.653-1.111L114,125.14l-3.422,6.936-7.654,1.111l5.537,5.4-1.307,7.625L114,142.611Z" opacity="0" clip-rule="evenodd" fill="#fff" stroke-linejoin="round" stroke-miterlimit="1"/><path id="ekwOoaWUFsb48" d="M159.6,142.611l6.845,3.601-1.307-7.625l5.538-5.4-7.654-1.111-3.422-6.936-3.423,6.936-7.654,1.111l5.538,5.4-1.308,7.625l6.847-3.601Z" opacity="0" clip-rule="evenodd" fill="#fff" stroke-linejoin="round" stroke-miterlimit="1"/><path id="ekwOoaWUFsb49" d="M205.199,142.611l6.845,3.601-1.305-7.625l5.537-5.4-7.653-1.111-3.424-6.936-3.422,6.936-7.654,1.111l5.538,5.4-1.309,7.625l6.847-3.601Z" opacity="0" clip-rule="evenodd" fill="#fff" stroke-linejoin="round" stroke-miterlimit="1"/><path id="ekwOoaWUFsb50" d="M250.8,142.611l-6.845,3.601l1.306-7.625-5.538-5.4l7.654-1.111l3.423-6.936l3.422,6.936l7.654,1.111-5.538,5.4l1.308,7.625-6.846-3.601Z" opacity="0" clip-rule="evenodd" fill="#fff" stroke-linejoin="round" stroke-miterlimit="1"/><path id="ekwOoaWUFsb51" d="M22.8,64.31l6.846,3.602-1.308-7.625l5.539-5.399-7.654-1.113L22.8,46.842l-3.423,6.933-7.653,1.113l5.537,5.399-1.307,7.625L22.8,64.31Z" opacity="0" clip-rule="evenodd" fill="#fff" stroke-linejoin="round" stroke-miterlimit="1"/><path id="ekwOoaWUFsb52" d="M68.399,64.31l6.846,3.602-1.306-7.625l5.537-5.399-7.654-1.113-3.423-6.933-3.422,6.933-7.654,1.113l5.538,5.399-1.307,7.625l6.845-3.602Z" opacity="0" clip-rule="evenodd" fill="#fff" stroke-linejoin="round" stroke-miterlimit="1"/><path id="ekwOoaWUFsb53" d="M114,64.31l6.845,3.602-1.306-7.625l5.537-5.399-7.653-1.113L114,46.842l-3.422,6.933-7.654,1.113l5.537,5.399-1.307,7.625L114,64.31Z" opacity="0" clip-rule="evenodd" fill="#fff" stroke-linejoin="round" stroke-miterlimit="1"/><path id="ekwOoaWUFsb54" d="M159.6,64.31l6.845,3.602-1.307-7.625l5.538-5.399-7.654-1.113-3.422-6.933-3.423,6.933-7.654,1.113l5.538,5.399-1.308,7.625L159.6,64.31Z" opacity="0" clip-rule="evenodd" fill="#fff" stroke-linejoin="round" stroke-miterlimit="1"/><path id="ekwOoaWUFsb55" d="M205.199,64.31l6.845,3.602-1.305-7.625l5.537-5.399-7.653-1.113-3.424-6.933-3.422,6.933-7.654,1.113l5.538,5.399-1.309,7.625l6.847-3.602Z" opacity="0" clip-rule="evenodd" fill="#fff" stroke-linejoin="round" stroke-miterlimit="1"/><path id="ekwOoaWUFsb56" d="M250.8,64.31l-6.845,3.602l1.306-7.625-5.538-5.399l7.654-1.113l3.423-6.933l3.422,6.933l7.654,1.113-5.538,5.399l1.308,7.625L250.8,64.31Z" opacity="0" clip-rule="evenodd" fill="#fff" stroke-linejoin="round" stroke-miterlimit="1"/><path id="ekwOoaWUFsb57" d="M22.8,103.46l6.846,3.602-1.308-7.625l5.539-5.398-7.654-1.113L22.8,85.992l-3.423,6.934-7.653,1.113l5.537,5.398-1.307,7.625L22.8,103.46Z" opacity="0" clip-rule="evenodd" fill="#fff" stroke-linejoin="round" stroke-miterlimit="1"/><path id="ekwOoaWUFsb58" d="M68.399,103.46l6.846,3.602-1.306-7.625l5.537-5.398-7.654-1.113-3.423-6.934-3.422,6.934-7.654,1.113l5.538,5.398-1.307,7.625l6.845-3.602Z" opacity="0" clip-rule="evenodd" fill="#fff" stroke-linejoin="round" stroke-miterlimit="1"/><path id="ekwOoaWUFsb59" d="M114,103.46l6.845,3.602-1.306-7.625l5.537-5.398-7.653-1.113L114,85.992l-3.422,6.934-7.654,1.113l5.537,5.398-1.307,7.625L114,103.46Z" opacity="0" clip-rule="evenodd" fill="#fff" stroke-linejoin="round" stroke-miterlimit="1"/><path id="ekwOoaWUFsb60" d="M159.6,103.46l6.845,3.602-1.307-7.625l5.538-5.398-7.654-1.113-3.422-6.934-3.423,6.934-7.654,1.113l5.538,5.398-1.308,7.625l6.847-3.602Z" opacity="0" clip-rule="evenodd" fill="#fff" stroke-linejoin="round" stroke-miterlimit="1"/><path id="ekwOoaWUFsb61" d="M205.199,103.46l6.845,3.602-1.305-7.625l5.537-5.398-7.653-1.113-3.424-6.934-3.422,6.934-7.654,1.113l5.538,5.398-1.309,7.625l6.847-3.602Z" opacity="0" clip-rule="evenodd" fill="#fff" stroke-linejoin="round" stroke-miterlimit="1"/><path id="ekwOoaWUFsb62" d="M250.8,103.46l-6.845,3.602l1.306-7.625-5.538-5.398l7.654-1.113l3.423-6.934l3.422,6.934l7.654,1.113-5.538,5.398l1.308,7.625-6.846-3.602Z" opacity="0" clip-rule="evenodd" fill="#fff" stroke-linejoin="round" stroke-miterlimit="1"/><path id="ekwOoaWUFsb63" d="M45.6,162.185l6.845,3.601-1.306-7.625l5.538-5.398-7.655-1.113-3.422-6.934-3.422,6.934-7.655,1.113l5.539,5.398-1.309,7.625l6.847-3.601Z" opacity="0" clip-rule="evenodd" fill="#fff" stroke-linejoin="round" stroke-miterlimit="1"/><path id="ekwOoaWUFsb64" d="M91.2,162.185l6.845,3.601-1.306-7.625l5.538-5.398-7.655-1.113-3.422-6.934-3.423,6.934-7.654,1.113l5.538,5.398-1.307,7.625l6.846-3.601Z" opacity="0" clip-rule="evenodd" fill="#fff" stroke-linejoin="round" stroke-miterlimit="1"/><path id="ekwOoaWUFsb65" d="M136.8,162.185l6.845,3.601-1.306-7.625l5.538-5.398-7.654-1.113-3.423-6.934-3.423,6.934-7.653,1.113l5.537,5.398-1.308,7.625l6.847-3.601Z" opacity="0" clip-rule="evenodd" fill="#fff" stroke-linejoin="round" stroke-miterlimit="1"/><path id="ekwOoaWUFsb66" d="M182.4,162.185l6.845,3.601-1.306-7.625l5.537-5.398-7.653-1.113-3.423-6.934-3.423,6.934-7.653,1.113l5.537,5.398-1.308,7.625l6.847-3.601Z" opacity="0" clip-rule="evenodd" fill="#fff" stroke-linejoin="round" stroke-miterlimit="1"/><path id="ekwOoaWUFsb67" d="M227.999,162.185l6.846,3.601-1.306-7.625l5.537-5.398-7.654-1.113-3.423-6.934-3.423,6.934-7.653,1.113l5.537,5.398-1.306,7.625l6.845-3.601Z" opacity="0" clip-rule="evenodd" fill="#fff" stroke-linejoin="round" stroke-miterlimit="1"/><path id="ekwOoaWUFsb68" d="M45.6,123.035l6.845,3.601-1.306-7.625l5.538-5.397-7.655-1.115-3.422-6.933-3.422,6.933-7.655,1.115l5.539,5.397-1.309,7.625l6.847-3.601Z" opacity="0" clip-rule="evenodd" fill="#fff" stroke-linejoin="round" stroke-miterlimit="1"/><path id="ekwOoaWUFsb69" d="M91.2,123.035l6.845,3.601-1.306-7.625l5.538-5.397-7.655-1.115-3.422-6.933-3.423,6.933-7.654,1.115l5.538,5.397-1.307,7.625l6.846-3.601Z" opacity="0" clip-rule="evenodd" fill="#fff" stroke-linejoin="round" stroke-miterlimit="1"/><path id="ekwOoaWUFsb70" d="M136.8,123.035l6.845,3.601-1.306-7.625l5.538-5.397-7.654-1.115-3.423-6.933-3.423,6.933-7.653,1.115l5.537,5.397-1.308,7.625l6.847-3.601Z" opacity="0" clip-rule="evenodd" fill="#fff" stroke-linejoin="round" stroke-miterlimit="1"/><path id="ekwOoaWUFsb71" d="M182.4,123.035l6.845,3.601-1.306-7.625l5.537-5.397-7.653-1.115-3.423-6.933-3.423,6.933-7.653,1.115l5.537,5.397-1.308,7.625l6.847-3.601Z" opacity="0" clip-rule="evenodd" fill="#fff" stroke-linejoin="round" stroke-miterlimit="1"/><path id="ekwOoaWUFsb72" d="M227.999,123.035l6.846,3.601-1.306-7.625l5.537-5.397-7.654-1.115-3.423-6.933-3.423,6.933-7.653,1.115l5.537,5.397-1.306,7.625l6.845-3.601Z" opacity="0" clip-rule="evenodd" fill="#fff" stroke-linejoin="round" stroke-miterlimit="1"/><path id="ekwOoaWUFsb73" d="M45.6,83.886l6.845,3.6-1.306-7.622l5.538-5.401-7.655-1.114L45.6,66.416l-3.422,6.933-7.655,1.114l5.539,5.401-1.309,7.622l6.847-3.6Z" opacity="0" clip-rule="evenodd" fill="#fff" stroke-linejoin="round" stroke-miterlimit="1"/><path id="ekwOoaWUFsb74" d="M91.2,83.886l6.845,3.6-1.306-7.622l5.538-5.401-7.655-1.114L91.2,66.416l-3.423,6.933-7.654,1.114l5.538,5.401-1.307,7.622l6.846-3.6Z" opacity="0" clip-rule="evenodd" fill="#fff" stroke-linejoin="round" stroke-miterlimit="1"/><path id="ekwOoaWUFsb75" d="M136.8,83.886l6.845,3.6-1.306-7.622l5.538-5.401-7.654-1.114-3.423-6.933-3.423,6.933-7.653,1.114l5.537,5.401-1.308,7.622l6.847-3.6Z" opacity="0" clip-rule="evenodd" fill="#fff" stroke-linejoin="round" stroke-miterlimit="1"/><path id="ekwOoaWUFsb76" d="M182.4,83.886l6.845,3.6-1.306-7.622l5.537-5.401-7.653-1.114-3.423-6.933-3.423,6.933-7.653,1.114l5.537,5.401-1.308,7.622l6.847-3.6Z" opacity="0" clip-rule="evenodd" fill="#fff" stroke-linejoin="round" stroke-miterlimit="1"/><path id="ekwOoaWUFsb77" d="M227.999,83.886l6.846,3.6-1.306-7.622l5.537-5.401-7.654-1.114-3.423-6.933-3.423,6.933-7.653,1.114l5.537,5.401-1.306,7.622l6.845-3.6Z" opacity="0" clip-rule="evenodd" fill="#fff" stroke-linejoin="round" stroke-miterlimit="1"/><path id="ekwOoaWUFsb78" d="M45.6,44.736l6.845,3.602-1.306-7.625l5.538-5.401-7.655-1.111L45.6,27.265l-3.422,6.936-7.655,1.111l5.539,5.401-1.309,7.625L45.6,44.736Z" opacity="0" clip-rule="evenodd" fill="#fff" stroke-linejoin="round" stroke-miterlimit="1"/><path id="ekwOoaWUFsb79" d="M91.2,44.736l6.845,3.602-1.306-7.625l5.538-5.401-7.655-1.111L91.2,27.265l-3.423,6.936-7.654,1.111l5.538,5.401-1.307,7.625L91.2,44.736Z" opacity="0" clip-rule="evenodd" fill="#fff" stroke-linejoin="round" stroke-miterlimit="1"/><path id="ekwOoaWUFsb80" d="M136.8,44.736l6.845,3.602-1.306-7.625l5.538-5.401-7.654-1.111-3.423-6.936-3.423,6.936-7.653,1.111l5.537,5.401-1.308,7.625l6.847-3.602Z" opacity="0" clip-rule="evenodd" fill="#fff" stroke-linejoin="round" stroke-miterlimit="1"/><path id="ekwOoaWUFsb81" d="M182.4,44.736l6.845,3.602-1.306-7.625l5.537-5.401-7.653-1.111-3.423-6.936-3.423,6.936-7.653,1.111l5.537,5.401-1.308,7.625l6.847-3.602Z" opacity="0" clip-rule="evenodd" fill="#fff" stroke-linejoin="round" stroke-miterlimit="1"/><path id="ekwOoaWUFsb82" d="M227.999,44.736l6.846,3.602-1.306-7.625l5.537-5.401-7.654-1.111-3.423-6.936-3.423,6.936-7.653,1.111l5.537,5.401-1.306,7.625l6.845-3.602Z" opacity="0" clip-rule="evenodd" fill="#fff" stroke-linejoin="round" stroke-miterlimit="1"/></g></g></g></g></g><text dx="0" dy="0" font-family="&quot;Oswald&quot;" font-size="28.95" font-weight="400" transform="matrix(2.897212 0 0 2.897212 92.066269 251.415638)" opacity="0" stroke-width="0" stroke-miterlimit="1"><tspan x="0" y="0" font-family="&quot;Oswald&quot;" font-size="28.95" font-weight="400" font-style="normal" transform="translate(63.876868 153.749801)" fill="#fff" stroke-width="0" stroke-miterlimit="1"><![CDATA[
Code for Racism
]]></tspan></text><rect id="ekwOoaWUFsb87" width="812.446911" height="586.011349" rx="0" ry="0" transform="matrix(1 0 0 1.358137-49.715677-161.852165)" fill="#030304" stroke-width="0"/></g><rect width="2380.489586" height="278.892185" rx="0" ry="0" transform="matrix(1 0 0 1.732243-209.659049-226.633659)" stroke-width="0"/></g></svg>
