<?xml version="1.0" encoding="UTF-8" standalone="no"?>
<!DOCTYPE svg PUBLIC "-//W3C//DTD SVG 1.1//EN" "http://www.w3.org/Graphics/SVG/1.1/DTD/svg11.dtd">
<svg width="100%" height="100%" viewBox="0 0 1319 228" version="1.1" xmlns="http://www.w3.org/2000/svg" xmlns:xlink="http://www.w3.org/1999/xlink" xml:space="preserve" xmlns:serif="http://www.serif.com/" style="fill-rule:evenodd;clip-rule:evenodd;stroke-linejoin:round;stroke-miterlimit:2;">
    <g transform="matrix(1,0,0,1.283386,-281.891616,-124.315647)">
        <g transform="matrix(192.654397,0,0,192.654397,300,249.858078)">
            <path d="M0.564,-0.51C0.564,-0.504 0.564,-0.498 0.564,-0.492C0.564,-0.486 0.563,-0.48 0.562,-0.475C0.561,-0.472 0.559,-0.469 0.557,-0.465C0.555,-0.462 0.552,-0.458 0.549,-0.455C0.546,-0.452 0.543,-0.45 0.539,-0.448C0.535,-0.445 0.532,-0.444 0.529,-0.444C0.524,-0.444 0.521,-0.446 0.52,-0.45C0.519,-0.454 0.518,-0.458 0.517,-0.463C0.517,-0.467 0.516,-0.472 0.514,-0.476C0.513,-0.479 0.51,-0.481 0.504,-0.481C0.503,-0.481 0.501,-0.481 0.5,-0.48C0.499,-0.48 0.498,-0.479 0.496,-0.479C0.495,-0.479 0.495,-0.481 0.494,-0.485C0.493,-0.489 0.493,-0.494 0.492,-0.5C0.491,-0.505 0.49,-0.511 0.488,-0.516C0.487,-0.522 0.486,-0.527 0.484,-0.531C0.481,-0.537 0.478,-0.543 0.475,-0.55C0.472,-0.557 0.47,-0.564 0.47,-0.571C0.47,-0.576 0.471,-0.581 0.473,-0.585C0.475,-0.588 0.477,-0.592 0.479,-0.595C0.482,-0.598 0.484,-0.602 0.486,-0.605C0.488,-0.608 0.489,-0.612 0.489,-0.617C0.489,-0.623 0.487,-0.629 0.482,-0.634C0.478,-0.639 0.473,-0.643 0.467,-0.646C0.46,-0.649 0.454,-0.651 0.447,-0.653C0.44,-0.654 0.433,-0.655 0.428,-0.655C0.419,-0.655 0.411,-0.654 0.403,-0.652C0.394,-0.649 0.386,-0.647 0.378,-0.644C0.369,-0.641 0.361,-0.638 0.353,-0.635C0.345,-0.632 0.337,-0.629 0.329,-0.626C0.33,-0.622 0.331,-0.617 0.332,-0.612C0.332,-0.607 0.333,-0.603 0.333,-0.598C0.333,-0.587 0.332,-0.576 0.331,-0.565C0.33,-0.554 0.33,-0.543 0.33,-0.532C0.33,-0.52 0.33,-0.508 0.332,-0.496C0.333,-0.484 0.339,-0.437 0.34,-0.425C0.341,-0.413 0.342,-0.401 0.342,-0.39C0.342,-0.375 0.339,-0.361 0.334,-0.348C0.333,-0.345 0.333,-0.343 0.333,-0.341C0.333,-0.338 0.334,-0.334 0.335,-0.331C0.337,-0.327 0.339,-0.324 0.341,-0.32C0.343,-0.316 0.345,-0.312 0.347,-0.309C0.348,-0.305 0.349,-0.301 0.349,-0.296C0.349,-0.292 0.348,-0.289 0.347,-0.285C0.346,-0.282 0.345,-0.278 0.345,-0.274C0.345,-0.269 0.346,-0.264 0.347,-0.259C0.349,-0.254 0.35,-0.249 0.35,-0.244C0.35,-0.241 0.349,-0.239 0.347,-0.239C0.346,-0.238 0.344,-0.238 0.342,-0.238C0.34,-0.238 0.339,-0.238 0.337,-0.238C0.336,-0.237 0.335,-0.236 0.335,-0.235C0.335,-0.23 0.336,-0.225 0.338,-0.221C0.34,-0.217 0.341,-0.212 0.341,-0.207C0.341,-0.203 0.34,-0.199 0.339,-0.195C0.337,-0.191 0.336,-0.187 0.336,-0.183C0.336,-0.179 0.338,-0.175 0.342,-0.172C0.345,-0.169 0.348,-0.165 0.35,-0.16C0.351,-0.155 0.353,-0.148 0.354,-0.141C0.355,-0.134 0.357,-0.127 0.361,-0.121C0.364,-0.114 0.369,-0.109 0.376,-0.104C0.384,-0.1 0.394,-0.098 0.408,-0.098L0.422,-0.098C0.426,-0.098 0.431,-0.097 0.437,-0.097C0.442,-0.096 0.448,-0.095 0.453,-0.093C0.459,-0.091 0.463,-0.089 0.467,-0.085C0.471,-0.082 0.473,-0.077 0.473,-0.072C0.473,-0.067 0.472,-0.062 0.47,-0.057C0.468,-0.052 0.467,-0.047 0.467,-0.042C0.467,-0.04 0.467,-0.038 0.468,-0.035C0.463,-0.035 0.459,-0.034 0.455,-0.031C0.451,-0.029 0.448,-0.026 0.447,-0.021C0.44,-0.022 0.434,-0.023 0.427,-0.024C0.42,-0.024 0.414,-0.024 0.407,-0.024C0.391,-0.024 0.374,-0.023 0.358,-0.021C0.342,-0.018 0.325,-0.016 0.309,-0.013C0.292,-0.01 0.276,-0.008 0.26,-0.005C0.243,-0.003 0.227,-0.001 0.21,-0.001C0.204,-0.001 0.198,-0.002 0.189,-0.002C0.181,-0.002 0.174,-0.003 0.166,-0.005C0.159,-0.007 0.152,-0.01 0.147,-0.014C0.141,-0.018 0.139,-0.024 0.139,-0.032C0.139,-0.041 0.14,-0.048 0.141,-0.052C0.143,-0.057 0.145,-0.06 0.148,-0.062C0.151,-0.064 0.154,-0.065 0.157,-0.065C0.16,-0.065 0.164,-0.066 0.167,-0.067C0.168,-0.068 0.168,-0.069 0.168,-0.07C0.168,-0.071 0.168,-0.073 0.166,-0.074C0.165,-0.075 0.163,-0.076 0.162,-0.077C0.167,-0.082 0.173,-0.085 0.18,-0.087C0.187,-0.089 0.195,-0.09 0.202,-0.091C0.209,-0.091 0.217,-0.092 0.224,-0.093C0.232,-0.093 0.239,-0.095 0.245,-0.098C0.248,-0.099 0.25,-0.101 0.253,-0.106C0.256,-0.111 0.259,-0.116 0.261,-0.121C0.264,-0.127 0.266,-0.132 0.267,-0.138C0.269,-0.143 0.27,-0.147 0.27,-0.15L0.27,-0.151C0.267,-0.167 0.265,-0.182 0.264,-0.197C0.263,-0.212 0.262,-0.228 0.262,-0.243C0.262,-0.244 0.263,-0.247 0.264,-0.25C0.265,-0.253 0.266,-0.256 0.268,-0.259C0.269,-0.263 0.271,-0.267 0.273,-0.271C0.27,-0.276 0.268,-0.28 0.266,-0.283C0.264,-0.286 0.263,-0.29 0.262,-0.292C0.26,-0.295 0.26,-0.298 0.26,-0.299C0.26,-0.303 0.26,-0.307 0.262,-0.311C0.263,-0.314 0.264,-0.318 0.265,-0.321C0.267,-0.335 0.268,-0.349 0.268,-0.363C0.268,-0.369 0.267,-0.374 0.266,-0.38C0.266,-0.386 0.264,-0.391 0.263,-0.397C0.259,-0.417 0.257,-0.437 0.257,-0.458C0.257,-0.483 0.258,-0.508 0.262,-0.532C0.265,-0.557 0.267,-0.581 0.267,-0.606C0.267,-0.614 0.265,-0.621 0.262,-0.626C0.259,-0.63 0.254,-0.634 0.245,-0.637C0.234,-0.64 0.222,-0.643 0.21,-0.645C0.198,-0.646 0.185,-0.647 0.173,-0.647C0.164,-0.647 0.155,-0.646 0.145,-0.644C0.135,-0.642 0.126,-0.639 0.117,-0.634C0.109,-0.629 0.102,-0.623 0.097,-0.615C0.092,-0.608 0.089,-0.599 0.089,-0.588C0.089,-0.582 0.091,-0.561 0.091,-0.556C0.091,-0.55 0.09,-0.546 0.088,-0.542C0.086,-0.538 0.084,-0.535 0.084,-0.531C0.084,-0.526 0.086,-0.522 0.088,-0.518C0.091,-0.513 0.092,-0.509 0.092,-0.504C0.092,-0.501 0.092,-0.497 0.09,-0.493C0.089,-0.489 0.087,-0.485 0.085,-0.481C0.083,-0.477 0.081,-0.473 0.079,-0.469C0.078,-0.465 0.076,-0.462 0.075,-0.458C0.074,-0.454 0.071,-0.449 0.069,-0.446C0.066,-0.442 0.062,-0.44 0.057,-0.44C0.052,-0.44 0.048,-0.442 0.044,-0.445C0.04,-0.448 0.038,-0.452 0.038,-0.457C0.038,-0.46 0.039,-0.463 0.041,-0.465C0.043,-0.467 0.043,-0.47 0.043,-0.473C0.043,-0.476 0.043,-0.479 0.042,-0.483C0.04,-0.486 0.034,-0.5 0.032,-0.503C0.031,-0.507 0.03,-0.511 0.03,-0.514C0.03,-0.519 0.031,-0.523 0.032,-0.527C0.034,-0.532 0.035,-0.536 0.035,-0.541C0.035,-0.55 0.033,-0.56 0.03,-0.569C0.027,-0.579 0.025,-0.588 0.025,-0.598C0.025,-0.607 0.026,-0.617 0.028,-0.629C0.03,-0.641 0.034,-0.653 0.038,-0.664C0.043,-0.675 0.049,-0.684 0.057,-0.692C0.065,-0.7 0.074,-0.704 0.086,-0.704C0.094,-0.704 0.102,-0.703 0.11,-0.701C0.118,-0.699 0.126,-0.698 0.135,-0.698C0.144,-0.698 0.154,-0.699 0.163,-0.701C0.173,-0.702 0.182,-0.703 0.191,-0.703C0.198,-0.703 0.204,-0.702 0.21,-0.7C0.215,-0.698 0.222,-0.697 0.228,-0.697C0.232,-0.697 0.235,-0.698 0.238,-0.699C0.241,-0.701 0.244,-0.702 0.248,-0.702C0.251,-0.702 0.255,-0.701 0.259,-0.699C0.263,-0.698 0.267,-0.697 0.271,-0.697C0.274,-0.697 0.277,-0.697 0.281,-0.698C0.284,-0.699 0.287,-0.7 0.29,-0.7C0.295,-0.7 0.3,-0.699 0.304,-0.698C0.309,-0.696 0.314,-0.696 0.318,-0.696L0.377,-0.703C0.386,-0.704 0.395,-0.704 0.404,-0.705C0.413,-0.706 0.422,-0.706 0.431,-0.706C0.446,-0.706 0.462,-0.705 0.477,-0.702C0.493,-0.7 0.508,-0.697 0.524,-0.693L0.524,-0.693C0.535,-0.69 0.542,-0.685 0.547,-0.676C0.551,-0.668 0.554,-0.658 0.556,-0.647C0.557,-0.636 0.558,-0.625 0.558,-0.614C0.557,-0.602 0.557,-0.593 0.558,-0.584C0.559,-0.572 0.56,-0.56 0.562,-0.547C0.563,-0.535 0.564,-0.522 0.564,-0.51Z" style="fill:white;fill-rule:nonzero;"/>
        </g>
        <g transform="matrix(192.654397,0,0,192.654397,408.556237,249.858078)">
            <path d="M0.543,-0.214C0.543,-0.209 0.542,-0.205 0.541,-0.201C0.539,-0.197 0.538,-0.193 0.536,-0.19C0.534,-0.188 0.532,-0.185 0.531,-0.183C0.53,-0.181 0.529,-0.18 0.529,-0.18C0.529,-0.176 0.53,-0.173 0.532,-0.169C0.534,-0.166 0.535,-0.162 0.535,-0.158C0.535,-0.156 0.534,-0.154 0.533,-0.154C0.531,-0.153 0.53,-0.153 0.528,-0.153C0.525,-0.153 0.523,-0.153 0.521,-0.154C0.521,-0.148 0.522,-0.142 0.523,-0.136C0.524,-0.13 0.524,-0.124 0.524,-0.118C0.524,-0.108 0.523,-0.102 0.521,-0.099C0.519,-0.097 0.518,-0.095 0.516,-0.094C0.514,-0.094 0.512,-0.093 0.51,-0.092C0.508,-0.091 0.507,-0.088 0.507,-0.083C0.507,-0.08 0.505,-0.076 0.501,-0.072C0.497,-0.067 0.492,-0.063 0.487,-0.058C0.481,-0.054 0.475,-0.05 0.469,-0.046C0.463,-0.043 0.458,-0.042 0.455,-0.042C0.454,-0.042 0.452,-0.042 0.451,-0.042C0.451,-0.04 0.452,-0.028 0.452,-0.026C0.452,-0.022 0.451,-0.019 0.448,-0.017C0.446,-0.016 0.443,-0.014 0.439,-0.013C0.435,-0.011 0.43,-0.008 0.424,-0.003C0.419,0.001 0.414,0.006 0.408,0.01C0.403,0.015 0.397,0.019 0.391,0.022C0.386,0.026 0.38,0.027 0.374,0.027C0.368,0.027 0.364,0.026 0.359,0.023C0.355,0.021 0.35,0.02 0.344,0.02C0.339,0.02 0.334,0.02 0.331,0.022C0.327,0.023 0.324,0.025 0.321,0.027C0.317,0.028 0.314,0.03 0.311,0.031C0.308,0.033 0.304,0.034 0.3,0.034C0.291,0.034 0.283,0.031 0.274,0.027C0.266,0.023 0.258,0.019 0.25,0.017C0.245,0.015 0.241,0.014 0.235,0.013C0.23,0.012 0.225,0.011 0.22,0.01C0.215,0.009 0.211,0.008 0.206,0.006C0.202,0.003 0.198,0 0.195,-0.003C0.188,-0.012 0.18,-0.019 0.171,-0.024C0.162,-0.03 0.153,-0.035 0.143,-0.04C0.134,-0.045 0.125,-0.05 0.116,-0.055C0.107,-0.061 0.099,-0.068 0.093,-0.077C0.088,-0.083 0.082,-0.091 0.076,-0.099C0.07,-0.107 0.064,-0.115 0.059,-0.124C0.053,-0.133 0.049,-0.142 0.045,-0.151C0.042,-0.16 0.04,-0.169 0.04,-0.178C0.04,-0.184 0.041,-0.191 0.042,-0.197C0.043,-0.203 0.049,-0.228 0.05,-0.234C0.052,-0.241 0.052,-0.247 0.052,-0.253L0.052,-0.259C0.052,-0.26 0.052,-0.262 0.051,-0.263C0.05,-0.265 0.049,-0.266 0.048,-0.268C0.046,-0.269 0.045,-0.271 0.044,-0.272C0.043,-0.273 0.042,-0.273 0.042,-0.273C0.041,-0.273 0.041,-0.273 0.041,-0.273C0.041,-0.276 0.042,-0.28 0.044,-0.286C0.045,-0.292 0.047,-0.299 0.049,-0.305C0.051,-0.311 0.053,-0.317 0.055,-0.323C0.057,-0.328 0.058,-0.331 0.06,-0.333C0.062,-0.335 0.064,-0.336 0.066,-0.338C0.067,-0.34 0.068,-0.342 0.068,-0.345C0.068,-0.348 0.067,-0.359 0.067,-0.362C0.067,-0.366 0.068,-0.369 0.069,-0.369C0.07,-0.37 0.071,-0.371 0.073,-0.371C0.074,-0.371 0.076,-0.371 0.078,-0.371C0.079,-0.372 0.081,-0.374 0.083,-0.376C0.085,-0.382 0.088,-0.388 0.091,-0.393C0.094,-0.398 0.097,-0.403 0.1,-0.407C0.103,-0.411 0.107,-0.415 0.111,-0.418C0.116,-0.422 0.121,-0.425 0.127,-0.429C0.132,-0.432 0.137,-0.435 0.142,-0.439C0.147,-0.444 0.153,-0.448 0.158,-0.452C0.163,-0.456 0.168,-0.46 0.174,-0.463C0.179,-0.466 0.185,-0.467 0.191,-0.467C0.2,-0.467 0.208,-0.469 0.217,-0.472C0.225,-0.475 0.233,-0.477 0.242,-0.479C0.255,-0.481 0.268,-0.483 0.281,-0.485C0.295,-0.486 0.308,-0.487 0.322,-0.487C0.329,-0.487 0.338,-0.486 0.349,-0.484C0.36,-0.481 0.371,-0.478 0.382,-0.474C0.393,-0.47 0.404,-0.466 0.414,-0.461C0.424,-0.456 0.432,-0.451 0.438,-0.446L0.438,-0.445C0.438,-0.44 0.437,-0.436 0.435,-0.431C0.433,-0.426 0.433,-0.422 0.433,-0.417L0.433,-0.415C0.433,-0.414 0.433,-0.414 0.434,-0.414C0.439,-0.414 0.444,-0.415 0.449,-0.416C0.455,-0.418 0.46,-0.418 0.465,-0.418C0.466,-0.413 0.468,-0.409 0.473,-0.407C0.477,-0.405 0.481,-0.403 0.485,-0.402C0.489,-0.4 0.493,-0.396 0.496,-0.391C0.5,-0.386 0.503,-0.381 0.506,-0.374C0.509,-0.368 0.512,-0.362 0.514,-0.355C0.517,-0.349 0.52,-0.344 0.522,-0.34C0.525,-0.336 0.527,-0.332 0.53,-0.326C0.532,-0.321 0.533,-0.315 0.535,-0.31C0.536,-0.304 0.537,-0.298 0.538,-0.292C0.539,-0.287 0.539,-0.281 0.539,-0.276C0.539,-0.27 0.538,-0.264 0.535,-0.26C0.533,-0.256 0.53,-0.252 0.527,-0.248C0.524,-0.245 0.522,-0.242 0.519,-0.239C0.517,-0.235 0.516,-0.232 0.516,-0.228C0.516,-0.226 0.516,-0.224 0.517,-0.222C0.518,-0.22 0.519,-0.218 0.521,-0.216C0.522,-0.217 0.523,-0.217 0.525,-0.217C0.527,-0.218 0.528,-0.219 0.528,-0.22L0.528,-0.221C0.528,-0.223 0.527,-0.226 0.525,-0.228C0.523,-0.23 0.522,-0.233 0.522,-0.236C0.522,-0.237 0.522,-0.238 0.523,-0.24C0.524,-0.241 0.524,-0.242 0.525,-0.242C0.527,-0.242 0.529,-0.24 0.531,-0.238C0.533,-0.236 0.535,-0.233 0.537,-0.23C0.539,-0.227 0.54,-0.225 0.541,-0.223C0.542,-0.221 0.542,-0.221 0.542,-0.221L0.542,-0.222C0.542,-0.22 0.543,-0.219 0.543,-0.218C0.543,-0.216 0.543,-0.215 0.543,-0.214ZM0.494,-0.21C0.494,-0.215 0.492,-0.218 0.488,-0.219C0.484,-0.221 0.48,-0.221 0.475,-0.222C0.47,-0.222 0.465,-0.222 0.461,-0.223C0.456,-0.224 0.453,-0.226 0.451,-0.23L0.451,-0.235C0.451,-0.243 0.45,-0.251 0.448,-0.26C0.447,-0.27 0.444,-0.28 0.442,-0.29C0.439,-0.3 0.437,-0.309 0.434,-0.319C0.431,-0.329 0.428,-0.337 0.425,-0.345C0.423,-0.352 0.417,-0.37 0.417,-0.37C0.414,-0.369 0.412,-0.369 0.41,-0.369C0.405,-0.369 0.4,-0.37 0.396,-0.372C0.392,-0.374 0.387,-0.377 0.382,-0.379C0.377,-0.382 0.371,-0.384 0.364,-0.387C0.356,-0.389 0.347,-0.39 0.334,-0.39C0.321,-0.39 0.308,-0.391 0.295,-0.393C0.282,-0.395 0.269,-0.396 0.255,-0.396C0.237,-0.396 0.22,-0.391 0.204,-0.383C0.188,-0.375 0.174,-0.364 0.162,-0.35C0.15,-0.337 0.141,-0.322 0.134,-0.305C0.127,-0.288 0.124,-0.271 0.124,-0.253C0.124,-0.246 0.124,-0.238 0.124,-0.228C0.124,-0.219 0.125,-0.209 0.126,-0.199C0.128,-0.19 0.13,-0.181 0.133,-0.173C0.136,-0.164 0.14,-0.158 0.145,-0.154L0.145,-0.14C0.146,-0.139 0.148,-0.138 0.15,-0.138C0.152,-0.138 0.154,-0.138 0.156,-0.138C0.159,-0.138 0.16,-0.137 0.162,-0.137C0.164,-0.136 0.165,-0.135 0.166,-0.133C0.17,-0.121 0.176,-0.112 0.183,-0.105C0.189,-0.099 0.197,-0.094 0.205,-0.089C0.212,-0.085 0.22,-0.08 0.228,-0.076C0.236,-0.072 0.243,-0.065 0.25,-0.057C0.252,-0.057 0.255,-0.057 0.258,-0.057C0.261,-0.058 0.264,-0.058 0.266,-0.058C0.277,-0.058 0.287,-0.057 0.297,-0.055C0.307,-0.054 0.317,-0.053 0.327,-0.053C0.337,-0.053 0.347,-0.056 0.356,-0.062C0.364,-0.067 0.372,-0.074 0.378,-0.083C0.382,-0.088 0.385,-0.093 0.389,-0.097C0.392,-0.101 0.395,-0.104 0.399,-0.108C0.402,-0.111 0.406,-0.114 0.41,-0.117C0.414,-0.121 0.419,-0.124 0.424,-0.128C0.426,-0.129 0.429,-0.131 0.431,-0.133C0.434,-0.135 0.437,-0.137 0.44,-0.139C0.442,-0.142 0.445,-0.144 0.447,-0.147C0.449,-0.149 0.45,-0.152 0.45,-0.154C0.45,-0.157 0.449,-0.16 0.448,-0.163C0.448,-0.166 0.447,-0.168 0.447,-0.171C0.447,-0.175 0.448,-0.179 0.449,-0.183C0.45,-0.188 0.451,-0.192 0.453,-0.196C0.455,-0.201 0.458,-0.204 0.461,-0.207C0.464,-0.21 0.468,-0.211 0.473,-0.211C0.476,-0.211 0.48,-0.21 0.483,-0.208C0.487,-0.207 0.49,-0.205 0.493,-0.203C0.494,-0.206 0.494,-0.208 0.494,-0.21Z" style="fill:white;fill-rule:nonzero;"/>
        </g>
        <g transform="matrix(192.654397,0,0,192.654397,520.969325,249.858078)">
            <path d="M0.597,-0.021C0.597,-0.017 0.596,-0.013 0.594,-0.008C0.591,-0.004 0.588,-0.002 0.583,-0.002C0.579,-0.002 0.576,-0.002 0.573,-0.003C0.57,-0.004 0.567,-0.004 0.563,-0.004C0.558,-0.004 0.556,-0.003 0.555,-0.001C0.555,0 0.555,0.003 0.554,0.005C0.554,0.008 0.551,0.01 0.547,0.012C0.543,0.014 0.535,0.015 0.521,0.015C0.514,0.015 0.507,0.014 0.499,0.013C0.492,0.011 0.485,0.011 0.477,0.011C0.472,0.011 0.465,0.012 0.459,0.013C0.456,0.01 0.454,0.007 0.45,0.006C0.447,0.004 0.444,0.003 0.442,0.001C0.439,-0.001 0.437,-0.003 0.435,-0.006C0.433,-0.008 0.432,-0.012 0.432,-0.018C0.432,-0.021 0.429,-0.023 0.425,-0.023C0.423,-0.023 0.422,-0.023 0.42,-0.022C0.419,-0.022 0.417,-0.022 0.416,-0.022C0.414,-0.022 0.413,-0.022 0.411,-0.023C0.41,-0.024 0.41,-0.025 0.41,-0.027C0.41,-0.028 0.41,-0.028 0.41,-0.028C0.403,-0.028 0.398,-0.026 0.395,-0.021C0.391,-0.017 0.387,-0.013 0.383,-0.008C0.38,-0.005 0.377,-0.003 0.374,-0.002C0.37,-0 0.357,0.005 0.353,0.006C0.349,0.008 0.345,0.01 0.342,0.014C0.339,0.017 0.334,0.019 0.327,0.02C0.32,0.022 0.313,0.023 0.305,0.024C0.298,0.024 0.29,0.025 0.283,0.025C0.276,0.025 0.27,0.025 0.266,0.025C0.256,0.025 0.248,0.025 0.242,0.023C0.236,0.021 0.231,0.019 0.226,0.017C0.221,0.014 0.216,0.012 0.211,0.009C0.206,0.006 0.199,0.004 0.191,0.001C0.182,-0.002 0.172,-0.007 0.159,-0.014C0.147,-0.021 0.135,-0.029 0.124,-0.039C0.113,-0.048 0.103,-0.058 0.095,-0.069C0.087,-0.08 0.083,-0.09 0.083,-0.101C0.083,-0.105 0.082,-0.11 0.08,-0.115C0.078,-0.119 0.076,-0.124 0.073,-0.128C0.069,-0.133 0.066,-0.137 0.063,-0.141C0.06,-0.146 0.057,-0.15 0.055,-0.154C0.049,-0.166 0.045,-0.179 0.043,-0.193C0.041,-0.207 0.041,-0.22 0.041,-0.234C0.041,-0.247 0.042,-0.259 0.043,-0.27C0.045,-0.282 0.048,-0.293 0.051,-0.304C0.054,-0.316 0.057,-0.327 0.06,-0.338C0.063,-0.349 0.066,-0.361 0.068,-0.373C0.07,-0.381 0.072,-0.387 0.075,-0.392C0.078,-0.396 0.081,-0.4 0.085,-0.403C0.089,-0.407 0.093,-0.41 0.097,-0.413C0.102,-0.416 0.106,-0.42 0.111,-0.425C0.113,-0.428 0.114,-0.43 0.115,-0.431C0.115,-0.433 0.115,-0.435 0.116,-0.436C0.116,-0.437 0.117,-0.438 0.119,-0.438C0.12,-0.439 0.123,-0.439 0.127,-0.439C0.13,-0.439 0.132,-0.44 0.134,-0.441C0.135,-0.443 0.136,-0.445 0.138,-0.447C0.139,-0.45 0.14,-0.452 0.141,-0.454C0.142,-0.457 0.144,-0.459 0.146,-0.46C0.148,-0.461 0.15,-0.462 0.153,-0.463C0.156,-0.464 0.159,-0.464 0.163,-0.464C0.166,-0.465 0.169,-0.465 0.172,-0.465C0.175,-0.466 0.178,-0.466 0.181,-0.467C0.188,-0.47 0.193,-0.473 0.198,-0.475C0.202,-0.477 0.206,-0.479 0.21,-0.481C0.214,-0.483 0.219,-0.484 0.224,-0.485C0.229,-0.486 0.236,-0.487 0.245,-0.487C0.256,-0.487 0.267,-0.485 0.278,-0.483C0.288,-0.48 0.299,-0.477 0.31,-0.474C0.321,-0.47 0.332,-0.467 0.342,-0.465C0.353,-0.462 0.364,-0.46 0.375,-0.46C0.385,-0.46 0.392,-0.462 0.397,-0.466C0.403,-0.47 0.407,-0.475 0.409,-0.481C0.412,-0.488 0.414,-0.494 0.415,-0.502C0.416,-0.509 0.416,-0.517 0.416,-0.524C0.416,-0.537 0.415,-0.549 0.414,-0.562C0.412,-0.574 0.411,-0.587 0.41,-0.599L0.406,-0.597C0.403,-0.597 0.4,-0.598 0.397,-0.6C0.394,-0.602 0.385,-0.61 0.382,-0.612C0.38,-0.613 0.377,-0.614 0.374,-0.614C0.37,-0.614 0.368,-0.613 0.367,-0.612C0.366,-0.61 0.364,-0.608 0.362,-0.606C0.358,-0.606 0.355,-0.606 0.351,-0.606C0.347,-0.606 0.343,-0.605 0.34,-0.605L0.318,-0.605C0.314,-0.605 0.309,-0.607 0.303,-0.61C0.297,-0.612 0.292,-0.616 0.287,-0.62C0.281,-0.625 0.277,-0.629 0.274,-0.635C0.27,-0.64 0.269,-0.645 0.269,-0.649C0.269,-0.654 0.27,-0.658 0.273,-0.663C0.275,-0.668 0.279,-0.672 0.283,-0.676C0.287,-0.68 0.292,-0.683 0.296,-0.685C0.301,-0.688 0.306,-0.689 0.311,-0.689C0.315,-0.689 0.319,-0.688 0.322,-0.686C0.326,-0.684 0.33,-0.683 0.334,-0.683C0.341,-0.683 0.348,-0.684 0.355,-0.686C0.361,-0.688 0.368,-0.689 0.376,-0.689C0.383,-0.689 0.391,-0.688 0.397,-0.686C0.404,-0.683 0.411,-0.682 0.418,-0.682C0.424,-0.682 0.447,-0.683 0.452,-0.683C0.458,-0.683 0.464,-0.683 0.47,-0.682C0.476,-0.681 0.482,-0.679 0.487,-0.676L0.487,-0.673C0.487,-0.668 0.487,-0.664 0.489,-0.659C0.49,-0.655 0.495,-0.638 0.496,-0.633C0.497,-0.629 0.498,-0.625 0.498,-0.62C0.498,-0.614 0.497,-0.609 0.494,-0.603C0.491,-0.598 0.49,-0.592 0.49,-0.586C0.49,-0.575 0.491,-0.563 0.494,-0.552C0.496,-0.541 0.498,-0.529 0.498,-0.518C0.498,-0.489 0.497,-0.461 0.497,-0.432C0.497,-0.404 0.497,-0.375 0.497,-0.346C0.497,-0.317 0.496,-0.288 0.494,-0.259C0.492,-0.23 0.491,-0.201 0.491,-0.172C0.491,-0.161 0.491,-0.149 0.492,-0.135C0.493,-0.122 0.496,-0.109 0.5,-0.097C0.504,-0.086 0.51,-0.076 0.519,-0.067C0.527,-0.059 0.539,-0.055 0.553,-0.055C0.556,-0.055 0.567,-0.057 0.57,-0.057C0.575,-0.057 0.578,-0.056 0.582,-0.053C0.585,-0.051 0.588,-0.048 0.59,-0.044C0.592,-0.041 0.594,-0.037 0.595,-0.033C0.596,-0.028 0.597,-0.025 0.597,-0.021ZM0.419,-0.263C0.419,-0.275 0.418,-0.288 0.416,-0.302C0.414,-0.315 0.41,-0.328 0.405,-0.34C0.4,-0.352 0.392,-0.362 0.383,-0.37C0.374,-0.378 0.362,-0.383 0.348,-0.383C0.345,-0.384 0.342,-0.385 0.338,-0.387C0.334,-0.389 0.329,-0.392 0.325,-0.395C0.321,-0.397 0.317,-0.399 0.313,-0.402C0.309,-0.404 0.305,-0.405 0.302,-0.405C0.299,-0.405 0.296,-0.404 0.293,-0.403C0.291,-0.402 0.28,-0.396 0.278,-0.395C0.275,-0.394 0.272,-0.394 0.269,-0.394C0.264,-0.394 0.243,-0.396 0.237,-0.396C0.221,-0.396 0.206,-0.391 0.193,-0.381C0.18,-0.371 0.169,-0.359 0.159,-0.344C0.15,-0.33 0.142,-0.314 0.137,-0.298C0.132,-0.281 0.129,-0.265 0.129,-0.251C0.129,-0.246 0.13,-0.24 0.131,-0.234C0.131,-0.228 0.132,-0.222 0.132,-0.216C0.132,-0.212 0.131,-0.209 0.129,-0.207C0.127,-0.204 0.124,-0.202 0.121,-0.199C0.119,-0.197 0.116,-0.194 0.114,-0.192C0.112,-0.189 0.111,-0.186 0.111,-0.182L0.115,-0.182C0.123,-0.182 0.13,-0.18 0.135,-0.177C0.139,-0.174 0.143,-0.17 0.145,-0.165C0.148,-0.16 0.15,-0.154 0.151,-0.147C0.153,-0.141 0.154,-0.134 0.156,-0.128C0.158,-0.121 0.161,-0.115 0.165,-0.108C0.169,-0.102 0.174,-0.097 0.181,-0.092C0.186,-0.088 0.192,-0.084 0.198,-0.08C0.205,-0.076 0.212,-0.072 0.219,-0.068C0.226,-0.065 0.233,-0.062 0.24,-0.059C0.247,-0.057 0.253,-0.056 0.26,-0.056C0.27,-0.056 0.28,-0.057 0.291,-0.06C0.301,-0.063 0.311,-0.065 0.321,-0.065C0.325,-0.065 0.329,-0.064 0.334,-0.063C0.341,-0.075 0.35,-0.086 0.36,-0.097C0.37,-0.108 0.382,-0.115 0.396,-0.119L0.396,-0.13C0.396,-0.141 0.397,-0.151 0.4,-0.161C0.402,-0.172 0.405,-0.182 0.408,-0.193C0.411,-0.204 0.413,-0.215 0.416,-0.226C0.418,-0.237 0.419,-0.25 0.419,-0.263Z" style="fill:white;fill-rule:nonzero;"/>
        </g>
        <g transform="matrix(192.654397,0,0,192.654397,637.145194,249.858078)">
            <path d="M0.597,-0.021C0.597,-0.017 0.596,-0.013 0.594,-0.008C0.591,-0.004 0.588,-0.002 0.583,-0.002C0.579,-0.002 0.576,-0.002 0.573,-0.003C0.57,-0.004 0.567,-0.004 0.563,-0.004C0.558,-0.004 0.556,-0.003 0.555,-0.001C0.555,0 0.555,0.003 0.554,0.005C0.554,0.008 0.551,0.01 0.547,0.012C0.543,0.014 0.535,0.015 0.521,0.015C0.514,0.015 0.507,0.014 0.499,0.013C0.492,0.011 0.485,0.011 0.477,0.011C0.472,0.011 0.465,0.012 0.459,0.013C0.456,0.01 0.454,0.007 0.45,0.006C0.447,0.004 0.444,0.003 0.442,0.001C0.439,-0.001 0.437,-0.003 0.435,-0.006C0.433,-0.008 0.432,-0.012 0.432,-0.018C0.432,-0.021 0.429,-0.023 0.425,-0.023C0.423,-0.023 0.422,-0.023 0.42,-0.022C0.419,-0.022 0.417,-0.022 0.416,-0.022C0.414,-0.022 0.413,-0.022 0.411,-0.023C0.41,-0.024 0.41,-0.025 0.41,-0.027C0.41,-0.028 0.41,-0.028 0.41,-0.028C0.403,-0.028 0.398,-0.026 0.395,-0.021C0.391,-0.017 0.387,-0.013 0.383,-0.008C0.38,-0.005 0.377,-0.003 0.374,-0.002C0.37,-0 0.357,0.005 0.353,0.006C0.349,0.008 0.345,0.01 0.342,0.014C0.339,0.017 0.334,0.019 0.327,0.02C0.32,0.022 0.313,0.023 0.305,0.024C0.298,0.024 0.29,0.025 0.283,0.025C0.276,0.025 0.27,0.025 0.266,0.025C0.256,0.025 0.248,0.025 0.242,0.023C0.236,0.021 0.231,0.019 0.226,0.017C0.221,0.014 0.216,0.012 0.211,0.009C0.206,0.006 0.199,0.004 0.191,0.001C0.182,-0.002 0.172,-0.007 0.159,-0.014C0.147,-0.021 0.135,-0.029 0.124,-0.039C0.113,-0.048 0.103,-0.058 0.095,-0.069C0.087,-0.08 0.083,-0.09 0.083,-0.101C0.083,-0.105 0.082,-0.11 0.08,-0.115C0.078,-0.119 0.076,-0.124 0.073,-0.128C0.069,-0.133 0.066,-0.137 0.063,-0.141C0.06,-0.146 0.057,-0.15 0.055,-0.154C0.049,-0.166 0.045,-0.179 0.043,-0.193C0.041,-0.207 0.041,-0.22 0.041,-0.234C0.041,-0.247 0.042,-0.259 0.043,-0.27C0.045,-0.282 0.048,-0.293 0.051,-0.304C0.054,-0.316 0.057,-0.327 0.06,-0.338C0.063,-0.349 0.066,-0.361 0.068,-0.373C0.07,-0.381 0.072,-0.387 0.075,-0.392C0.078,-0.396 0.081,-0.4 0.085,-0.403C0.089,-0.407 0.093,-0.41 0.097,-0.413C0.102,-0.416 0.106,-0.42 0.111,-0.425C0.113,-0.428 0.114,-0.43 0.115,-0.431C0.115,-0.433 0.115,-0.435 0.116,-0.436C0.116,-0.437 0.117,-0.438 0.119,-0.438C0.12,-0.439 0.123,-0.439 0.127,-0.439C0.13,-0.439 0.132,-0.44 0.134,-0.441C0.135,-0.443 0.136,-0.445 0.138,-0.447C0.139,-0.45 0.14,-0.452 0.141,-0.454C0.142,-0.457 0.144,-0.459 0.146,-0.46C0.148,-0.461 0.15,-0.462 0.153,-0.463C0.156,-0.464 0.159,-0.464 0.163,-0.464C0.166,-0.465 0.169,-0.465 0.172,-0.465C0.175,-0.466 0.178,-0.466 0.181,-0.467C0.188,-0.47 0.193,-0.473 0.198,-0.475C0.202,-0.477 0.206,-0.479 0.21,-0.481C0.214,-0.483 0.219,-0.484 0.224,-0.485C0.229,-0.486 0.236,-0.487 0.245,-0.487C0.256,-0.487 0.267,-0.485 0.278,-0.483C0.288,-0.48 0.299,-0.477 0.31,-0.474C0.321,-0.47 0.332,-0.467 0.342,-0.465C0.353,-0.462 0.364,-0.46 0.375,-0.46C0.385,-0.46 0.392,-0.462 0.397,-0.466C0.403,-0.47 0.407,-0.475 0.409,-0.481C0.412,-0.488 0.414,-0.494 0.415,-0.502C0.416,-0.509 0.416,-0.517 0.416,-0.524C0.416,-0.537 0.415,-0.549 0.414,-0.562C0.412,-0.574 0.411,-0.587 0.41,-0.599L0.406,-0.597C0.403,-0.597 0.4,-0.598 0.397,-0.6C0.394,-0.602 0.385,-0.61 0.382,-0.612C0.38,-0.613 0.377,-0.614 0.374,-0.614C0.37,-0.614 0.368,-0.613 0.367,-0.612C0.366,-0.61 0.364,-0.608 0.362,-0.606C0.358,-0.606 0.355,-0.606 0.351,-0.606C0.347,-0.606 0.343,-0.605 0.34,-0.605L0.318,-0.605C0.314,-0.605 0.309,-0.607 0.303,-0.61C0.297,-0.612 0.292,-0.616 0.287,-0.62C0.281,-0.625 0.277,-0.629 0.274,-0.635C0.27,-0.64 0.269,-0.645 0.269,-0.649C0.269,-0.654 0.27,-0.658 0.273,-0.663C0.275,-0.668 0.279,-0.672 0.283,-0.676C0.287,-0.68 0.292,-0.683 0.296,-0.685C0.301,-0.688 0.306,-0.689 0.311,-0.689C0.315,-0.689 0.319,-0.688 0.322,-0.686C0.326,-0.684 0.33,-0.683 0.334,-0.683C0.341,-0.683 0.348,-0.684 0.355,-0.686C0.361,-0.688 0.368,-0.689 0.376,-0.689C0.383,-0.689 0.391,-0.688 0.397,-0.686C0.404,-0.683 0.411,-0.682 0.418,-0.682C0.424,-0.682 0.447,-0.683 0.452,-0.683C0.458,-0.683 0.464,-0.683 0.47,-0.682C0.476,-0.681 0.482,-0.679 0.487,-0.676L0.487,-0.673C0.487,-0.668 0.487,-0.664 0.489,-0.659C0.49,-0.655 0.495,-0.638 0.496,-0.633C0.497,-0.629 0.498,-0.625 0.498,-0.62C0.498,-0.614 0.497,-0.609 0.494,-0.603C0.491,-0.598 0.49,-0.592 0.49,-0.586C0.49,-0.575 0.491,-0.563 0.494,-0.552C0.496,-0.541 0.498,-0.529 0.498,-0.518C0.498,-0.489 0.497,-0.461 0.497,-0.432C0.497,-0.404 0.497,-0.375 0.497,-0.346C0.497,-0.317 0.496,-0.288 0.494,-0.259C0.492,-0.23 0.491,-0.201 0.491,-0.172C0.491,-0.161 0.491,-0.149 0.492,-0.135C0.493,-0.122 0.496,-0.109 0.5,-0.097C0.504,-0.086 0.51,-0.076 0.519,-0.067C0.527,-0.059 0.539,-0.055 0.553,-0.055C0.556,-0.055 0.567,-0.057 0.57,-0.057C0.575,-0.057 0.578,-0.056 0.582,-0.053C0.585,-0.051 0.588,-0.048 0.59,-0.044C0.592,-0.041 0.594,-0.037 0.595,-0.033C0.596,-0.028 0.597,-0.025 0.597,-0.021ZM0.419,-0.263C0.419,-0.275 0.418,-0.288 0.416,-0.302C0.414,-0.315 0.41,-0.328 0.405,-0.34C0.4,-0.352 0.392,-0.362 0.383,-0.37C0.374,-0.378 0.362,-0.383 0.348,-0.383C0.345,-0.384 0.342,-0.385 0.338,-0.387C0.334,-0.389 0.329,-0.392 0.325,-0.395C0.321,-0.397 0.317,-0.399 0.313,-0.402C0.309,-0.404 0.305,-0.405 0.302,-0.405C0.299,-0.405 0.296,-0.404 0.293,-0.403C0.291,-0.402 0.28,-0.396 0.278,-0.395C0.275,-0.394 0.272,-0.394 0.269,-0.394C0.264,-0.394 0.243,-0.396 0.237,-0.396C0.221,-0.396 0.206,-0.391 0.193,-0.381C0.18,-0.371 0.169,-0.359 0.159,-0.344C0.15,-0.33 0.142,-0.314 0.137,-0.298C0.132,-0.281 0.129,-0.265 0.129,-0.251C0.129,-0.246 0.13,-0.24 0.131,-0.234C0.131,-0.228 0.132,-0.222 0.132,-0.216C0.132,-0.212 0.131,-0.209 0.129,-0.207C0.127,-0.204 0.124,-0.202 0.121,-0.199C0.119,-0.197 0.116,-0.194 0.114,-0.192C0.112,-0.189 0.111,-0.186 0.111,-0.182L0.115,-0.182C0.123,-0.182 0.13,-0.18 0.135,-0.177C0.139,-0.174 0.143,-0.17 0.145,-0.165C0.148,-0.16 0.15,-0.154 0.151,-0.147C0.153,-0.141 0.154,-0.134 0.156,-0.128C0.158,-0.121 0.161,-0.115 0.165,-0.108C0.169,-0.102 0.174,-0.097 0.181,-0.092C0.186,-0.088 0.192,-0.084 0.198,-0.08C0.205,-0.076 0.212,-0.072 0.219,-0.068C0.226,-0.065 0.233,-0.062 0.24,-0.059C0.247,-0.057 0.253,-0.056 0.26,-0.056C0.27,-0.056 0.28,-0.057 0.291,-0.06C0.301,-0.063 0.311,-0.065 0.321,-0.065C0.325,-0.065 0.329,-0.064 0.334,-0.063C0.341,-0.075 0.35,-0.086 0.36,-0.097C0.37,-0.108 0.382,-0.115 0.396,-0.119L0.396,-0.13C0.396,-0.141 0.397,-0.151 0.4,-0.161C0.402,-0.172 0.405,-0.182 0.408,-0.193C0.411,-0.204 0.413,-0.215 0.416,-0.226C0.418,-0.237 0.419,-0.25 0.419,-0.263Z" style="fill:white;fill-rule:nonzero;"/>
        </g>
        <g transform="matrix(192.654397,0,0,192.654397,809.762781,249.858078)">
            <path d="M0.582,-0.136C0.582,-0.132 0.581,-0.128 0.58,-0.124C0.578,-0.12 0.577,-0.117 0.577,-0.112C0.577,-0.109 0.578,-0.106 0.579,-0.103C0.58,-0.1 0.581,-0.097 0.581,-0.093C0.581,-0.091 0.581,-0.087 0.58,-0.081C0.579,-0.075 0.577,-0.069 0.576,-0.063C0.574,-0.057 0.573,-0.051 0.571,-0.046C0.57,-0.04 0.568,-0.037 0.567,-0.035L0.553,-0.035C0.551,-0.028 0.549,-0.021 0.546,-0.014C0.534,-0.008 0.523,-0.004 0.514,-0.002C0.505,-0.001 0.496,-0 0.486,-0C0.481,-0 0.461,-0 0.455,-0C0.444,-0 0.435,0 0.427,0.001C0.419,0.002 0.41,0.006 0.4,0.011C0.397,0.013 0.394,0.013 0.391,0.013C0.385,0.013 0.379,0.013 0.373,0.011C0.367,0.01 0.343,0.004 0.337,0.002C0.331,0.001 0.325,0 0.319,0C0.31,0 0.301,-0 0.292,-0.002C0.284,-0.004 0.275,-0.005 0.266,-0.005C0.26,-0.005 0.253,-0.004 0.247,-0.003C0.241,-0.002 0.216,0.003 0.209,0.005C0.203,0.006 0.197,0.006 0.19,0.006C0.185,0.006 0.179,0.006 0.173,0.004C0.168,0.003 0.162,0.002 0.156,0.002C0.146,0.002 0.135,0.003 0.125,0.005C0.115,0.007 0.105,0.008 0.094,0.008C0.081,0.008 0.069,0.004 0.06,-0.002C0.051,-0.009 0.047,-0.02 0.047,-0.034C0.047,-0.04 0.048,-0.045 0.051,-0.05C0.058,-0.063 0.066,-0.073 0.074,-0.079C0.082,-0.085 0.09,-0.09 0.097,-0.092C0.104,-0.095 0.111,-0.097 0.118,-0.098C0.124,-0.099 0.13,-0.101 0.135,-0.104C0.14,-0.107 0.143,-0.113 0.146,-0.121C0.149,-0.128 0.15,-0.14 0.15,-0.157C0.15,-0.176 0.149,-0.195 0.146,-0.214C0.143,-0.232 0.141,-0.251 0.141,-0.271C0.141,-0.28 0.142,-0.29 0.144,-0.299C0.146,-0.308 0.147,-0.317 0.147,-0.327C0.147,-0.343 0.146,-0.359 0.145,-0.375C0.143,-0.391 0.143,-0.406 0.143,-0.422C0.143,-0.433 0.141,-0.444 0.138,-0.455C0.135,-0.465 0.134,-0.476 0.134,-0.487C0.134,-0.494 0.134,-0.5 0.136,-0.506C0.137,-0.512 0.138,-0.518 0.138,-0.524C0.138,-0.534 0.137,-0.543 0.136,-0.553C0.135,-0.562 0.134,-0.572 0.134,-0.581C0.133,-0.586 0.133,-0.591 0.132,-0.596C0.13,-0.601 0.129,-0.606 0.126,-0.61C0.123,-0.613 0.12,-0.616 0.116,-0.619C0.111,-0.621 0.106,-0.622 0.1,-0.622C0.094,-0.622 0.088,-0.621 0.083,-0.619C0.077,-0.617 0.071,-0.616 0.065,-0.616C0.061,-0.616 0.058,-0.617 0.055,-0.617C0.051,-0.618 0.048,-0.619 0.045,-0.62C0.043,-0.622 0.042,-0.625 0.041,-0.627C0.04,-0.63 0.038,-0.633 0.037,-0.636C0.036,-0.639 0.034,-0.641 0.032,-0.643C0.03,-0.645 0.028,-0.647 0.024,-0.647C0.027,-0.652 0.03,-0.659 0.033,-0.667C0.036,-0.674 0.039,-0.682 0.043,-0.689C0.047,-0.696 0.051,-0.702 0.057,-0.708C0.062,-0.713 0.068,-0.715 0.076,-0.715C0.082,-0.715 0.088,-0.714 0.093,-0.711C0.098,-0.708 0.104,-0.707 0.11,-0.707C0.118,-0.707 0.126,-0.708 0.133,-0.711C0.14,-0.715 0.148,-0.716 0.156,-0.716C0.162,-0.716 0.168,-0.714 0.173,-0.709C0.179,-0.711 0.185,-0.712 0.189,-0.712C0.193,-0.712 0.196,-0.711 0.199,-0.71C0.202,-0.709 0.205,-0.709 0.208,-0.709C0.218,-0.709 0.228,-0.71 0.237,-0.713C0.246,-0.716 0.256,-0.717 0.266,-0.717C0.273,-0.717 0.281,-0.716 0.288,-0.714C0.295,-0.712 0.302,-0.709 0.309,-0.706C0.316,-0.703 0.323,-0.7 0.33,-0.696C0.336,-0.693 0.344,-0.691 0.351,-0.689C0.351,-0.687 0.352,-0.686 0.352,-0.685C0.352,-0.684 0.352,-0.679 0.352,-0.679L0.352,-0.677C0.351,-0.671 0.35,-0.664 0.348,-0.658C0.346,-0.652 0.345,-0.646 0.344,-0.641C0.342,-0.633 0.339,-0.628 0.335,-0.626C0.331,-0.624 0.326,-0.623 0.32,-0.623C0.318,-0.623 0.306,-0.623 0.304,-0.623C0.292,-0.623 0.28,-0.622 0.268,-0.62C0.256,-0.619 0.244,-0.616 0.233,-0.612C0.23,-0.606 0.228,-0.599 0.228,-0.592C0.228,-0.586 0.229,-0.58 0.23,-0.574C0.231,-0.568 0.232,-0.562 0.233,-0.557C0.229,-0.557 0.226,-0.558 0.223,-0.559C0.221,-0.56 0.217,-0.561 0.214,-0.561C0.211,-0.561 0.209,-0.56 0.207,-0.557C0.205,-0.554 0.204,-0.551 0.204,-0.548C0.204,-0.546 0.204,-0.544 0.206,-0.542C0.208,-0.541 0.21,-0.54 0.212,-0.539C0.214,-0.538 0.217,-0.537 0.219,-0.537C0.222,-0.536 0.224,-0.536 0.226,-0.536L0.226,-0.526C0.226,-0.514 0.225,-0.503 0.222,-0.491C0.219,-0.479 0.218,-0.468 0.218,-0.456C0.218,-0.452 0.218,-0.448 0.219,-0.445C0.22,-0.441 0.22,-0.438 0.22,-0.434C0.22,-0.43 0.219,-0.427 0.217,-0.426C0.214,-0.425 0.212,-0.425 0.209,-0.425C0.206,-0.425 0.203,-0.425 0.201,-0.424C0.198,-0.424 0.197,-0.423 0.197,-0.42C0.197,-0.419 0.197,-0.418 0.198,-0.417C0.196,-0.415 0.196,-0.413 0.196,-0.411C0.196,-0.408 0.197,-0.406 0.199,-0.405C0.201,-0.405 0.204,-0.404 0.207,-0.404C0.209,-0.404 0.212,-0.404 0.214,-0.403C0.216,-0.403 0.217,-0.401 0.217,-0.399C0.217,-0.395 0.217,-0.392 0.216,-0.389C0.215,-0.386 0.214,-0.383 0.214,-0.379C0.214,-0.371 0.216,-0.362 0.22,-0.354C0.223,-0.346 0.225,-0.337 0.225,-0.329C0.225,-0.321 0.224,-0.313 0.222,-0.305C0.22,-0.298 0.219,-0.29 0.219,-0.282C0.219,-0.277 0.219,-0.273 0.221,-0.268C0.222,-0.263 0.229,-0.244 0.231,-0.24C0.232,-0.235 0.233,-0.23 0.233,-0.225C0.233,-0.218 0.232,-0.212 0.229,-0.205C0.227,-0.199 0.226,-0.192 0.226,-0.185C0.226,-0.183 0.226,-0.181 0.227,-0.178C0.228,-0.17 0.23,-0.161 0.231,-0.151C0.232,-0.141 0.234,-0.131 0.237,-0.122C0.24,-0.113 0.244,-0.105 0.25,-0.098C0.256,-0.092 0.264,-0.088 0.275,-0.088C0.285,-0.088 0.295,-0.09 0.304,-0.093C0.314,-0.096 0.323,-0.098 0.333,-0.098C0.34,-0.098 0.346,-0.097 0.352,-0.095C0.358,-0.094 0.381,-0.087 0.387,-0.085C0.393,-0.084 0.4,-0.083 0.406,-0.083C0.416,-0.083 0.426,-0.084 0.435,-0.086C0.445,-0.089 0.455,-0.091 0.464,-0.092C0.478,-0.095 0.488,-0.1 0.495,-0.106C0.502,-0.113 0.505,-0.124 0.505,-0.138C0.505,-0.153 0.504,-0.167 0.5,-0.181C0.497,-0.195 0.495,-0.209 0.495,-0.224C0.495,-0.232 0.496,-0.241 0.499,-0.249C0.502,-0.258 0.506,-0.265 0.511,-0.271C0.519,-0.274 0.527,-0.275 0.535,-0.275C0.549,-0.275 0.559,-0.271 0.565,-0.261C0.571,-0.252 0.574,-0.241 0.574,-0.229C0.574,-0.223 0.573,-0.219 0.57,-0.217C0.568,-0.215 0.567,-0.213 0.567,-0.211C0.567,-0.21 0.568,-0.209 0.569,-0.208C0.57,-0.207 0.572,-0.206 0.573,-0.204C0.575,-0.202 0.576,-0.201 0.578,-0.198C0.579,-0.196 0.58,-0.194 0.58,-0.191C0.58,-0.189 0.579,-0.187 0.577,-0.186C0.577,-0.182 0.576,-0.178 0.576,-0.173C0.576,-0.168 0.576,-0.162 0.575,-0.157C0.575,-0.152 0.575,-0.147 0.576,-0.143C0.576,-0.138 0.577,-0.135 0.578,-0.132L0.582,-0.136Z" style="fill:white;fill-rule:nonzero;"/>
        </g>
        <g transform="matrix(192.654397,0,0,192.654397,925.844581,249.858078)">
            <path d="M0.561,-0.085C0.561,-0.08 0.56,-0.075 0.558,-0.07C0.556,-0.065 0.554,-0.06 0.552,-0.055C0.551,-0.05 0.55,-0.046 0.55,-0.043C0.549,-0.041 0.548,-0.038 0.547,-0.036C0.546,-0.034 0.545,-0.032 0.543,-0.03C0.541,-0.028 0.537,-0.026 0.533,-0.024C0.523,-0.019 0.513,-0.013 0.502,-0.008C0.491,-0.003 0.48,-0 0.469,-0C0.459,-0 0.45,-0.002 0.442,-0.007C0.434,-0.011 0.426,-0.016 0.419,-0.021C0.412,-0.027 0.406,-0.032 0.4,-0.036C0.394,-0.041 0.39,-0.043 0.386,-0.043C0.382,-0.043 0.378,-0.042 0.375,-0.04C0.372,-0.037 0.369,-0.035 0.365,-0.032C0.362,-0.03 0.359,-0.027 0.355,-0.025C0.351,-0.023 0.347,-0.021 0.341,-0.021C0.337,-0.021 0.332,-0.021 0.327,-0.019C0.322,-0.017 0.317,-0.016 0.312,-0.013C0.308,-0.011 0.303,-0.009 0.298,-0.007C0.293,-0.005 0.288,-0.003 0.284,-0.002C0.269,0.002 0.254,0.004 0.24,0.005C0.225,0.006 0.21,0.006 0.195,0.006C0.191,0.006 0.185,0.006 0.177,0.006C0.169,0.005 0.16,0.005 0.152,0.003C0.144,0.002 0.136,-0.001 0.13,-0.004C0.124,-0.007 0.121,-0.012 0.121,-0.018C0.121,-0.019 0.121,-0.02 0.121,-0.021C0.119,-0.018 0.116,-0.016 0.113,-0.015C0.11,-0.013 0.107,-0.012 0.104,-0.012C0.098,-0.012 0.092,-0.016 0.084,-0.023C0.077,-0.03 0.07,-0.038 0.063,-0.048C0.056,-0.057 0.05,-0.067 0.045,-0.076C0.041,-0.085 0.038,-0.092 0.038,-0.097C0.038,-0.1 0.039,-0.104 0.041,-0.106C0.043,-0.109 0.044,-0.113 0.044,-0.116C0.044,-0.121 0.044,-0.125 0.043,-0.129C0.042,-0.133 0.041,-0.138 0.041,-0.142C0.041,-0.148 0.042,-0.154 0.044,-0.161C0.047,-0.168 0.049,-0.174 0.053,-0.181C0.056,-0.188 0.059,-0.194 0.063,-0.2C0.067,-0.207 0.07,-0.213 0.073,-0.218C0.076,-0.225 0.081,-0.23 0.086,-0.234C0.092,-0.238 0.098,-0.241 0.105,-0.244C0.111,-0.247 0.118,-0.25 0.125,-0.253C0.131,-0.256 0.137,-0.26 0.142,-0.265C0.146,-0.259 0.153,-0.256 0.161,-0.256C0.169,-0.256 0.177,-0.258 0.185,-0.26C0.192,-0.262 0.2,-0.264 0.208,-0.264C0.215,-0.264 0.221,-0.263 0.227,-0.262C0.233,-0.26 0.24,-0.26 0.246,-0.26C0.253,-0.26 0.259,-0.261 0.262,-0.262C0.265,-0.264 0.27,-0.267 0.275,-0.272C0.28,-0.277 0.287,-0.28 0.295,-0.282C0.303,-0.285 0.311,-0.287 0.32,-0.288C0.328,-0.29 0.337,-0.291 0.345,-0.293C0.354,-0.295 0.362,-0.297 0.369,-0.3C0.375,-0.303 0.381,-0.307 0.385,-0.313C0.389,-0.318 0.392,-0.326 0.392,-0.335C0.392,-0.345 0.389,-0.356 0.383,-0.368C0.377,-0.379 0.369,-0.39 0.359,-0.4C0.35,-0.409 0.34,-0.417 0.328,-0.423C0.317,-0.43 0.306,-0.433 0.295,-0.433C0.294,-0.433 0.293,-0.432 0.292,-0.432C0.29,-0.432 0.289,-0.432 0.288,-0.432C0.28,-0.43 0.271,-0.429 0.262,-0.429C0.252,-0.428 0.243,-0.427 0.234,-0.425C0.226,-0.422 0.219,-0.418 0.213,-0.412C0.207,-0.407 0.204,-0.398 0.204,-0.387C0.204,-0.381 0.205,-0.374 0.206,-0.368C0.207,-0.362 0.208,-0.355 0.208,-0.349C0.208,-0.339 0.205,-0.331 0.2,-0.324C0.196,-0.318 0.19,-0.312 0.182,-0.309C0.175,-0.305 0.167,-0.302 0.158,-0.301C0.149,-0.299 0.141,-0.298 0.133,-0.298C0.123,-0.298 0.115,-0.3 0.107,-0.302C0.1,-0.305 0.094,-0.311 0.09,-0.32C0.086,-0.327 0.082,-0.335 0.078,-0.343C0.074,-0.351 0.072,-0.359 0.072,-0.367C0.072,-0.375 0.074,-0.384 0.077,-0.391C0.08,-0.399 0.083,-0.406 0.087,-0.414C0.091,-0.421 0.095,-0.428 0.099,-0.436C0.103,-0.443 0.105,-0.451 0.107,-0.459C0.109,-0.461 0.112,-0.462 0.116,-0.463C0.121,-0.465 0.125,-0.466 0.13,-0.467C0.134,-0.469 0.139,-0.47 0.143,-0.471C0.148,-0.472 0.151,-0.473 0.154,-0.474C0.162,-0.476 0.17,-0.479 0.177,-0.482C0.184,-0.485 0.192,-0.488 0.199,-0.491C0.207,-0.493 0.215,-0.496 0.222,-0.498C0.23,-0.5 0.238,-0.501 0.246,-0.501L0.261,-0.501C0.275,-0.501 0.29,-0.5 0.304,-0.498C0.319,-0.495 0.333,-0.492 0.347,-0.486C0.361,-0.481 0.374,-0.475 0.387,-0.467C0.399,-0.459 0.411,-0.45 0.42,-0.44C0.428,-0.432 0.434,-0.423 0.438,-0.412C0.443,-0.402 0.447,-0.391 0.449,-0.379C0.452,-0.367 0.454,-0.355 0.455,-0.344C0.456,-0.332 0.457,-0.321 0.457,-0.311C0.457,-0.297 0.457,-0.283 0.456,-0.27C0.455,-0.257 0.455,-0.244 0.455,-0.23C0.455,-0.217 0.455,-0.204 0.457,-0.191C0.458,-0.178 0.46,-0.165 0.462,-0.153C0.464,-0.14 0.466,-0.127 0.467,-0.114C0.469,-0.101 0.469,-0.088 0.469,-0.076C0.47,-0.068 0.471,-0.063 0.472,-0.061C0.474,-0.059 0.475,-0.059 0.477,-0.059C0.484,-0.059 0.49,-0.061 0.494,-0.065C0.499,-0.07 0.503,-0.074 0.506,-0.08C0.51,-0.085 0.514,-0.09 0.518,-0.095C0.522,-0.099 0.528,-0.102 0.534,-0.102C0.537,-0.102 0.54,-0.101 0.543,-0.101C0.546,-0.101 0.549,-0.1 0.552,-0.099C0.554,-0.098 0.556,-0.096 0.558,-0.094C0.56,-0.092 0.561,-0.089 0.561,-0.085ZM0.4,-0.207C0.4,-0.209 0.4,-0.212 0.4,-0.217C0.399,-0.222 0.399,-0.227 0.398,-0.232C0.398,-0.237 0.397,-0.242 0.395,-0.246C0.394,-0.25 0.392,-0.251 0.389,-0.251C0.388,-0.251 0.387,-0.251 0.386,-0.251C0.385,-0.25 0.384,-0.25 0.384,-0.25C0.371,-0.243 0.361,-0.238 0.352,-0.233C0.343,-0.229 0.335,-0.225 0.326,-0.222C0.317,-0.22 0.308,-0.218 0.298,-0.217C0.289,-0.216 0.276,-0.215 0.262,-0.215C0.26,-0.215 0.254,-0.215 0.246,-0.213C0.237,-0.211 0.227,-0.209 0.217,-0.207C0.206,-0.205 0.197,-0.203 0.188,-0.201C0.178,-0.199 0.173,-0.197 0.17,-0.197C0.166,-0.195 0.163,-0.194 0.161,-0.192C0.16,-0.19 0.158,-0.188 0.157,-0.187C0.156,-0.185 0.155,-0.183 0.154,-0.18C0.153,-0.178 0.152,-0.176 0.149,-0.174C0.146,-0.171 0.142,-0.169 0.138,-0.167C0.135,-0.166 0.131,-0.163 0.128,-0.16C0.123,-0.155 0.118,-0.149 0.114,-0.141C0.11,-0.133 0.108,-0.125 0.108,-0.118C0.108,-0.109 0.11,-0.102 0.115,-0.095C0.119,-0.088 0.125,-0.082 0.133,-0.077C0.14,-0.072 0.149,-0.068 0.158,-0.064C0.168,-0.061 0.177,-0.058 0.187,-0.056C0.196,-0.054 0.206,-0.053 0.215,-0.052C0.224,-0.051 0.231,-0.05 0.238,-0.05C0.246,-0.05 0.255,-0.051 0.266,-0.052C0.276,-0.053 0.287,-0.055 0.298,-0.057C0.309,-0.06 0.319,-0.063 0.328,-0.067C0.338,-0.072 0.345,-0.077 0.351,-0.083C0.353,-0.086 0.354,-0.088 0.355,-0.091C0.356,-0.093 0.358,-0.095 0.359,-0.097C0.36,-0.099 0.361,-0.101 0.363,-0.104C0.364,-0.106 0.366,-0.108 0.37,-0.111C0.377,-0.117 0.383,-0.124 0.387,-0.131C0.391,-0.139 0.394,-0.147 0.396,-0.155C0.398,-0.163 0.399,-0.171 0.399,-0.18C0.4,-0.189 0.4,-0.198 0.4,-0.207Z" style="fill:white;fill-rule:nonzero;"/>
        </g>
        <g transform="matrix(192.654397,0,0,192.654397,1034.777096,249.858078)">
            <path d="M0.633,-0.023C0.633,-0.021 0.632,-0.017 0.632,-0.012C0.631,-0.008 0.629,-0.003 0.628,0.002C0.626,0.006 0.624,0.011 0.622,0.014C0.619,0.018 0.617,0.02 0.614,0.02C0.61,0.02 0.607,0.019 0.603,0.017C0.599,0.016 0.596,0.015 0.592,0.015C0.581,0.015 0.57,0.016 0.559,0.018C0.548,0.02 0.536,0.021 0.525,0.021C0.519,0.021 0.514,0.021 0.509,0.019C0.504,0.018 0.5,0.016 0.495,0.015C0.49,0.013 0.485,0.011 0.48,0.01C0.476,0.008 0.471,0.007 0.465,0.006C0.458,0.006 0.452,0.003 0.448,-0.003C0.443,-0.008 0.441,-0.015 0.441,-0.022C0.441,-0.031 0.444,-0.039 0.448,-0.045C0.453,-0.051 0.458,-0.057 0.464,-0.064C0.47,-0.07 0.476,-0.078 0.48,-0.088C0.485,-0.097 0.487,-0.11 0.487,-0.126C0.487,-0.158 0.486,-0.19 0.483,-0.221C0.48,-0.252 0.479,-0.284 0.479,-0.316L0.479,-0.331C0.479,-0.337 0.479,-0.344 0.478,-0.352C0.477,-0.359 0.476,-0.365 0.473,-0.371C0.471,-0.377 0.467,-0.381 0.462,-0.385C0.457,-0.388 0.45,-0.39 0.441,-0.39C0.434,-0.386 0.427,-0.381 0.42,-0.375C0.413,-0.37 0.407,-0.364 0.402,-0.356C0.4,-0.353 0.397,-0.348 0.395,-0.34C0.392,-0.333 0.389,-0.324 0.387,-0.314C0.385,-0.305 0.383,-0.294 0.381,-0.283C0.378,-0.272 0.377,-0.262 0.375,-0.251C0.373,-0.241 0.372,-0.232 0.371,-0.224C0.37,-0.215 0.37,-0.209 0.37,-0.205C0.37,-0.192 0.371,-0.18 0.372,-0.167C0.374,-0.155 0.375,-0.142 0.375,-0.13C0.375,-0.123 0.374,-0.117 0.373,-0.111C0.372,-0.105 0.372,-0.099 0.372,-0.092C0.372,-0.09 0.372,-0.087 0.372,-0.084C0.372,-0.082 0.373,-0.079 0.375,-0.077C0.379,-0.075 0.383,-0.072 0.388,-0.069C0.393,-0.066 0.398,-0.063 0.402,-0.059C0.406,-0.056 0.41,-0.052 0.413,-0.047C0.416,-0.043 0.418,-0.039 0.418,-0.034C0.418,-0.025 0.415,-0.017 0.408,-0.011C0.401,-0.005 0.393,-0.002 0.384,-0.002C0.382,-0.002 0.373,-0.003 0.371,-0.003C0.368,-0.003 0.365,-0.003 0.362,-0.002C0.358,-0.001 0.345,0.005 0.342,0.006C0.339,0.007 0.335,0.008 0.331,0.008C0.321,0.008 0.311,0.007 0.302,0.004C0.292,0.001 0.283,-0 0.272,-0C0.27,-0 0.267,-0.001 0.265,-0.004C0.262,-0.006 0.26,-0.009 0.259,-0.012C0.258,-0.015 0.257,-0.019 0.256,-0.022C0.255,-0.026 0.255,-0.029 0.255,-0.031C0.255,-0.037 0.256,-0.042 0.259,-0.045C0.261,-0.048 0.264,-0.05 0.268,-0.053C0.271,-0.055 0.275,-0.057 0.28,-0.06C0.284,-0.062 0.288,-0.066 0.292,-0.07C0.295,-0.074 0.298,-0.08 0.301,-0.087C0.303,-0.094 0.304,-0.104 0.304,-0.116C0.304,-0.121 0.304,-0.126 0.302,-0.13C0.301,-0.135 0.3,-0.139 0.298,-0.144C0.297,-0.149 0.295,-0.153 0.294,-0.158C0.293,-0.162 0.292,-0.167 0.292,-0.172C0.292,-0.18 0.293,-0.189 0.295,-0.197C0.297,-0.206 0.298,-0.214 0.298,-0.223C0.298,-0.229 0.297,-0.235 0.295,-0.24C0.293,-0.246 0.292,-0.251 0.292,-0.257C0.292,-0.262 0.293,-0.265 0.295,-0.269C0.298,-0.272 0.299,-0.276 0.299,-0.28C0.299,-0.281 0.299,-0.284 0.298,-0.287C0.297,-0.291 0.296,-0.295 0.296,-0.3C0.295,-0.304 0.294,-0.309 0.293,-0.314C0.293,-0.32 0.292,-0.325 0.292,-0.329C0.292,-0.335 0.293,-0.341 0.295,-0.347C0.296,-0.353 0.297,-0.358 0.297,-0.364C0.297,-0.368 0.296,-0.371 0.294,-0.374C0.292,-0.377 0.29,-0.38 0.287,-0.383C0.284,-0.385 0.281,-0.387 0.277,-0.388C0.274,-0.389 0.27,-0.39 0.267,-0.39C0.262,-0.39 0.256,-0.389 0.251,-0.387C0.246,-0.385 0.241,-0.382 0.236,-0.379C0.232,-0.376 0.227,-0.372 0.223,-0.368C0.219,-0.364 0.215,-0.361 0.211,-0.357C0.21,-0.354 0.209,-0.351 0.208,-0.348C0.207,-0.344 0.206,-0.341 0.205,-0.339C0.203,-0.337 0.201,-0.335 0.198,-0.334C0.196,-0.333 0.193,-0.331 0.19,-0.33C0.187,-0.329 0.185,-0.327 0.183,-0.326C0.181,-0.324 0.18,-0.322 0.18,-0.319C0.18,-0.317 0.181,-0.315 0.182,-0.313C0.184,-0.311 0.186,-0.31 0.188,-0.31C0.191,-0.302 0.193,-0.296 0.193,-0.29C0.193,-0.284 0.192,-0.279 0.191,-0.273C0.19,-0.268 0.184,-0.248 0.183,-0.242C0.182,-0.237 0.182,-0.232 0.182,-0.227L0.182,-0.178C0.182,-0.173 0.183,-0.17 0.184,-0.169C0.185,-0.167 0.186,-0.166 0.188,-0.165C0.189,-0.164 0.191,-0.163 0.192,-0.162C0.194,-0.16 0.195,-0.157 0.196,-0.151C0.197,-0.145 0.198,-0.138 0.198,-0.132C0.199,-0.125 0.2,-0.118 0.2,-0.112C0.2,-0.105 0.199,-0.098 0.198,-0.092C0.196,-0.085 0.196,-0.078 0.196,-0.071C0.196,-0.064 0.197,-0.059 0.199,-0.055C0.201,-0.052 0.204,-0.05 0.207,-0.048C0.21,-0.047 0.214,-0.046 0.217,-0.045C0.221,-0.045 0.224,-0.044 0.228,-0.042C0.231,-0.041 0.233,-0.039 0.236,-0.036C0.238,-0.032 0.239,-0.027 0.239,-0.02C0.239,-0.014 0.237,-0.008 0.233,-0.004C0.23,-0 0.225,0.003 0.219,0.004C0.198,0.01 0.177,0.014 0.155,0.018C0.133,0.021 0.111,0.022 0.09,0.022C0.083,0.022 0.078,0.022 0.073,0.022C0.069,0.021 0.065,0.02 0.062,0.018C0.059,0.016 0.057,0.012 0.056,0.008C0.055,0.003 0.054,-0.003 0.054,-0.012C0.054,-0.019 0.057,-0.026 0.063,-0.032C0.069,-0.038 0.076,-0.044 0.083,-0.049C0.09,-0.055 0.096,-0.06 0.102,-0.066C0.108,-0.072 0.111,-0.078 0.111,-0.085C0.111,-0.088 0.111,-0.098 0.111,-0.1C0.111,-0.103 0.111,-0.105 0.112,-0.108C0.113,-0.111 0.115,-0.115 0.117,-0.118C0.117,-0.125 0.116,-0.132 0.115,-0.14C0.114,-0.147 0.107,-0.175 0.106,-0.182C0.104,-0.189 0.104,-0.196 0.104,-0.204C0.104,-0.219 0.105,-0.234 0.108,-0.249C0.11,-0.263 0.112,-0.278 0.112,-0.293C0.112,-0.302 0.112,-0.31 0.111,-0.318C0.111,-0.326 0.11,-0.335 0.109,-0.343C0.108,-0.353 0.107,-0.361 0.106,-0.367C0.105,-0.373 0.103,-0.378 0.1,-0.382C0.097,-0.387 0.093,-0.39 0.088,-0.393C0.083,-0.396 0.076,-0.4 0.067,-0.404C0.062,-0.407 0.057,-0.41 0.053,-0.415C0.049,-0.419 0.047,-0.424 0.047,-0.43C0.047,-0.437 0.048,-0.442 0.052,-0.445C0.055,-0.447 0.058,-0.449 0.062,-0.451C0.066,-0.452 0.07,-0.454 0.074,-0.455C0.078,-0.456 0.081,-0.459 0.083,-0.463C0.084,-0.466 0.085,-0.468 0.086,-0.468C0.087,-0.469 0.09,-0.469 0.093,-0.469C0.102,-0.469 0.11,-0.467 0.118,-0.465C0.126,-0.462 0.134,-0.459 0.142,-0.456C0.149,-0.453 0.156,-0.45 0.163,-0.447C0.17,-0.444 0.177,-0.443 0.184,-0.443C0.19,-0.443 0.198,-0.445 0.205,-0.449C0.213,-0.454 0.221,-0.459 0.23,-0.464C0.24,-0.469 0.25,-0.474 0.261,-0.478C0.272,-0.483 0.285,-0.485 0.299,-0.485C0.305,-0.485 0.311,-0.484 0.316,-0.481C0.322,-0.478 0.328,-0.475 0.333,-0.471C0.339,-0.467 0.344,-0.463 0.349,-0.458C0.354,-0.454 0.358,-0.45 0.361,-0.445C0.369,-0.453 0.378,-0.459 0.388,-0.465C0.399,-0.47 0.41,-0.475 0.421,-0.479C0.432,-0.482 0.444,-0.485 0.456,-0.486C0.467,-0.488 0.479,-0.489 0.489,-0.489C0.497,-0.489 0.505,-0.487 0.511,-0.482C0.518,-0.478 0.524,-0.472 0.529,-0.465C0.534,-0.457 0.538,-0.449 0.542,-0.44C0.545,-0.431 0.549,-0.422 0.552,-0.413C0.555,-0.403 0.558,-0.395 0.56,-0.386C0.562,-0.377 0.568,-0.361 0.568,-0.359C0.568,-0.358 0.568,-0.356 0.568,-0.354C0.568,-0.349 0.568,-0.345 0.566,-0.341C0.565,-0.337 0.559,-0.32 0.558,-0.316C0.557,-0.312 0.556,-0.307 0.556,-0.303C0.556,-0.298 0.557,-0.294 0.559,-0.29C0.561,-0.285 0.562,-0.281 0.562,-0.276C0.562,-0.271 0.561,-0.267 0.559,-0.262C0.557,-0.258 0.556,-0.253 0.556,-0.249C0.556,-0.242 0.557,-0.236 0.559,-0.23C0.562,-0.224 0.563,-0.218 0.563,-0.211C0.563,-0.207 0.562,-0.202 0.561,-0.198C0.559,-0.193 0.552,-0.175 0.551,-0.171C0.55,-0.166 0.549,-0.162 0.549,-0.157C0.549,-0.155 0.549,-0.154 0.549,-0.152C0.55,-0.151 0.55,-0.149 0.551,-0.147L0.57,-0.1C0.573,-0.093 0.578,-0.086 0.584,-0.08C0.591,-0.074 0.598,-0.068 0.605,-0.062C0.613,-0.056 0.619,-0.05 0.625,-0.044C0.63,-0.037 0.633,-0.03 0.633,-0.023Z" style="fill:white;fill-rule:nonzero;"/>
        </g>
        <g transform="matrix(192.654397,0,0,192.654397,1162.617587,249.858078)">
            <path d="M0.527,-0.251C0.527,-0.245 0.526,-0.241 0.523,-0.236C0.52,-0.232 0.516,-0.23 0.509,-0.229C0.511,-0.223 0.514,-0.217 0.518,-0.212C0.522,-0.206 0.524,-0.2 0.524,-0.193C0.524,-0.189 0.523,-0.184 0.522,-0.18C0.52,-0.176 0.519,-0.171 0.517,-0.167C0.515,-0.163 0.513,-0.159 0.511,-0.154C0.509,-0.15 0.508,-0.146 0.507,-0.142C0.505,-0.135 0.502,-0.126 0.496,-0.114C0.49,-0.102 0.484,-0.09 0.477,-0.077C0.47,-0.064 0.463,-0.053 0.456,-0.042C0.448,-0.031 0.442,-0.023 0.438,-0.019C0.434,-0.015 0.43,-0.013 0.426,-0.012C0.422,-0.01 0.418,-0.009 0.415,-0.009C0.411,-0.008 0.407,-0.008 0.402,-0.007C0.398,-0.007 0.394,-0.006 0.39,-0.004C0.382,-0 0.375,0.004 0.368,0.009C0.361,0.013 0.353,0.016 0.344,0.016C0.341,0.016 0.337,0.015 0.334,0.013C0.332,0.012 0.32,0.004 0.317,0.002C0.314,0.001 0.311,-0 0.308,-0C0.303,0.003 0.298,0.005 0.292,0.006C0.285,0.008 0.278,0.009 0.271,0.01C0.264,0.011 0.257,0.012 0.251,0.012C0.244,0.013 0.238,0.013 0.233,0.013C0.217,0.013 0.203,0.009 0.192,0.002C0.181,-0.006 0.171,-0.015 0.162,-0.028C0.159,-0.027 0.157,-0.026 0.154,-0.024C0.152,-0.023 0.141,-0.015 0.139,-0.014C0.137,-0.012 0.135,-0.012 0.134,-0.012L0.133,-0.018L0.13,-0.021C0.127,-0.021 0.124,-0.021 0.122,-0.019C0.12,-0.017 0.118,-0.015 0.116,-0.013C0.115,-0.01 0.113,-0.008 0.111,-0.007C0.108,-0.005 0.106,-0.004 0.103,-0.004C0.099,-0.004 0.096,-0.004 0.092,-0.006C0.089,-0.007 0.087,-0.01 0.087,-0.014C0.087,-0.018 0.088,-0.021 0.09,-0.024C0.091,-0.026 0.092,-0.03 0.092,-0.033C0.092,-0.037 0.091,-0.042 0.09,-0.045C0.089,-0.049 0.089,-0.053 0.089,-0.057C0.089,-0.061 0.089,-0.065 0.09,-0.069C0.091,-0.073 0.091,-0.077 0.091,-0.082C0.091,-0.086 0.091,-0.091 0.089,-0.096C0.088,-0.101 0.081,-0.12 0.08,-0.125C0.078,-0.129 0.078,-0.134 0.078,-0.14C0.078,-0.146 0.079,-0.153 0.082,-0.159C0.085,-0.165 0.086,-0.172 0.086,-0.179C0.086,-0.181 0.086,-0.183 0.085,-0.184C0.085,-0.186 0.084,-0.187 0.083,-0.188C0.083,-0.189 0.082,-0.191 0.082,-0.193C0.081,-0.194 0.081,-0.197 0.081,-0.201C0.081,-0.204 0.081,-0.219 0.081,-0.221C0.081,-0.226 0.081,-0.231 0.08,-0.236C0.079,-0.241 0.078,-0.246 0.078,-0.251C0.078,-0.259 0.079,-0.268 0.082,-0.276C0.084,-0.285 0.085,-0.293 0.085,-0.302C0.085,-0.313 0.084,-0.325 0.082,-0.336C0.08,-0.347 0.08,-0.359 0.08,-0.371C0.08,-0.375 0.08,-0.379 0.081,-0.383C0.082,-0.388 0.088,-0.404 0.089,-0.408C0.09,-0.413 0.091,-0.417 0.091,-0.421C0.091,-0.43 0.09,-0.439 0.089,-0.447C0.088,-0.456 0.086,-0.464 0.085,-0.473C0.083,-0.482 0.082,-0.49 0.081,-0.499C0.08,-0.507 0.079,-0.516 0.079,-0.525C0.079,-0.53 0.08,-0.55 0.08,-0.556C0.08,-0.571 0.077,-0.583 0.072,-0.591C0.067,-0.598 0.06,-0.604 0.052,-0.607C0.044,-0.611 0.035,-0.613 0.026,-0.613C0.017,-0.614 0.009,-0.615 0.001,-0.616C-0.007,-0.618 -0.014,-0.621 -0.019,-0.625C-0.024,-0.629 -0.027,-0.636 -0.027,-0.646C-0.027,-0.655 -0.025,-0.662 -0.02,-0.667C-0.015,-0.672 -0.01,-0.676 -0.003,-0.679C0.003,-0.682 0.011,-0.684 0.019,-0.684C0.026,-0.685 0.034,-0.686 0.04,-0.686C0.057,-0.686 0.074,-0.684 0.09,-0.681C0.107,-0.678 0.124,-0.676 0.141,-0.675C0.145,-0.674 0.147,-0.673 0.148,-0.67C0.149,-0.667 0.149,-0.664 0.149,-0.66C0.148,-0.656 0.147,-0.652 0.146,-0.647C0.146,-0.642 0.145,-0.637 0.145,-0.631C0.145,-0.621 0.145,-0.61 0.144,-0.599C0.144,-0.588 0.144,-0.579 0.144,-0.57C0.144,-0.567 0.144,-0.562 0.144,-0.554C0.144,-0.547 0.144,-0.538 0.145,-0.529C0.145,-0.52 0.146,-0.51 0.147,-0.5C0.148,-0.49 0.15,-0.48 0.152,-0.472C0.153,-0.464 0.156,-0.457 0.158,-0.451C0.161,-0.446 0.164,-0.443 0.168,-0.443C0.171,-0.443 0.174,-0.444 0.177,-0.445C0.18,-0.447 0.182,-0.449 0.185,-0.451C0.188,-0.453 0.19,-0.456 0.193,-0.458C0.195,-0.461 0.198,-0.463 0.201,-0.464C0.208,-0.467 0.215,-0.469 0.223,-0.47C0.232,-0.472 0.24,-0.473 0.248,-0.473C0.25,-0.473 0.253,-0.473 0.256,-0.475C0.259,-0.477 0.262,-0.478 0.265,-0.48C0.268,-0.482 0.271,-0.484 0.274,-0.485C0.278,-0.487 0.281,-0.488 0.285,-0.488C0.29,-0.488 0.294,-0.487 0.299,-0.486C0.303,-0.484 0.307,-0.482 0.311,-0.48C0.315,-0.479 0.32,-0.477 0.324,-0.475C0.328,-0.473 0.333,-0.472 0.337,-0.472C0.344,-0.471 0.351,-0.47 0.357,-0.469C0.364,-0.469 0.37,-0.467 0.376,-0.464C0.38,-0.463 0.383,-0.461 0.384,-0.458C0.386,-0.456 0.388,-0.454 0.391,-0.453C0.395,-0.45 0.398,-0.449 0.401,-0.449C0.405,-0.448 0.408,-0.448 0.411,-0.448C0.414,-0.447 0.418,-0.447 0.421,-0.446C0.425,-0.444 0.429,-0.442 0.434,-0.438C0.438,-0.435 0.443,-0.431 0.448,-0.427C0.453,-0.422 0.458,-0.418 0.462,-0.414C0.467,-0.409 0.47,-0.404 0.474,-0.399C0.477,-0.394 0.48,-0.388 0.481,-0.382C0.483,-0.369 0.487,-0.356 0.491,-0.341C0.496,-0.326 0.502,-0.313 0.509,-0.303C0.514,-0.295 0.518,-0.287 0.522,-0.278C0.525,-0.27 0.527,-0.26 0.527,-0.251ZM0.477,-0.231C0.476,-0.235 0.475,-0.238 0.471,-0.241C0.468,-0.243 0.465,-0.245 0.462,-0.246C0.458,-0.248 0.455,-0.249 0.453,-0.251C0.451,-0.253 0.451,-0.255 0.453,-0.258C0.453,-0.261 0.454,-0.263 0.456,-0.263C0.457,-0.264 0.459,-0.265 0.46,-0.265C0.46,-0.271 0.457,-0.277 0.452,-0.285C0.447,-0.293 0.444,-0.3 0.441,-0.307C0.439,-0.312 0.438,-0.316 0.438,-0.32C0.437,-0.325 0.436,-0.328 0.435,-0.332C0.433,-0.336 0.431,-0.339 0.429,-0.342C0.427,-0.345 0.423,-0.348 0.417,-0.352C0.414,-0.354 0.41,-0.356 0.408,-0.357C0.406,-0.358 0.403,-0.36 0.402,-0.361C0.4,-0.363 0.398,-0.364 0.397,-0.367C0.395,-0.369 0.394,-0.372 0.392,-0.377C0.39,-0.382 0.387,-0.386 0.385,-0.388C0.382,-0.39 0.379,-0.392 0.375,-0.393C0.372,-0.394 0.368,-0.394 0.364,-0.395C0.36,-0.396 0.356,-0.397 0.352,-0.398C0.341,-0.402 0.331,-0.406 0.321,-0.408C0.311,-0.411 0.3,-0.413 0.289,-0.413C0.266,-0.413 0.248,-0.409 0.233,-0.403C0.218,-0.396 0.205,-0.386 0.195,-0.374C0.186,-0.362 0.178,-0.348 0.173,-0.331C0.168,-0.314 0.165,-0.296 0.163,-0.276C0.162,-0.268 0.161,-0.26 0.159,-0.252C0.158,-0.245 0.156,-0.237 0.154,-0.229C0.152,-0.222 0.15,-0.214 0.148,-0.206C0.147,-0.198 0.146,-0.19 0.146,-0.183C0.146,-0.179 0.146,-0.177 0.146,-0.175C0.147,-0.174 0.148,-0.172 0.151,-0.169C0.156,-0.162 0.16,-0.156 0.16,-0.148C0.161,-0.141 0.162,-0.134 0.162,-0.128C0.163,-0.121 0.164,-0.115 0.167,-0.11C0.169,-0.104 0.174,-0.1 0.182,-0.098C0.187,-0.096 0.191,-0.094 0.193,-0.093C0.196,-0.091 0.198,-0.089 0.199,-0.086C0.201,-0.084 0.202,-0.082 0.204,-0.079C0.205,-0.076 0.207,-0.073 0.21,-0.07C0.217,-0.071 0.224,-0.073 0.231,-0.073C0.238,-0.074 0.245,-0.075 0.252,-0.077C0.252,-0.072 0.254,-0.069 0.258,-0.066C0.262,-0.064 0.267,-0.062 0.272,-0.061C0.278,-0.059 0.284,-0.058 0.289,-0.058C0.295,-0.057 0.299,-0.057 0.302,-0.057C0.308,-0.057 0.314,-0.057 0.32,-0.058C0.326,-0.058 0.332,-0.059 0.338,-0.061C0.343,-0.063 0.349,-0.065 0.354,-0.068C0.359,-0.071 0.363,-0.076 0.366,-0.081C0.371,-0.09 0.376,-0.096 0.383,-0.099C0.39,-0.103 0.396,-0.106 0.403,-0.109C0.41,-0.112 0.416,-0.116 0.422,-0.12C0.427,-0.125 0.432,-0.132 0.435,-0.141C0.438,-0.153 0.442,-0.164 0.446,-0.176C0.45,-0.188 0.452,-0.2 0.452,-0.212C0.452,-0.217 0.451,-0.221 0.45,-0.225C0.45,-0.229 0.448,-0.233 0.447,-0.237C0.451,-0.235 0.455,-0.232 0.459,-0.229C0.463,-0.227 0.467,-0.225 0.472,-0.225C0.473,-0.225 0.475,-0.226 0.475,-0.227C0.476,-0.228 0.477,-0.229 0.477,-0.231Z" style="fill:white;fill-rule:nonzero;"/>
        </g>
        <g transform="matrix(192.654397,0,0,192.654397,1271.550102,249.858078)">
            <path d="M0.501,-0.102C0.501,-0.093 0.5,-0.086 0.497,-0.08C0.494,-0.073 0.49,-0.068 0.486,-0.063C0.482,-0.058 0.477,-0.054 0.471,-0.049C0.465,-0.045 0.459,-0.041 0.454,-0.036C0.449,-0.032 0.445,-0.029 0.441,-0.027C0.438,-0.025 0.434,-0.023 0.431,-0.022C0.427,-0.021 0.424,-0.019 0.42,-0.018C0.416,-0.017 0.412,-0.015 0.407,-0.013C0.401,-0.009 0.395,-0.006 0.391,-0.004C0.386,-0.001 0.382,0.002 0.378,0.004C0.373,0.006 0.368,0.008 0.363,0.01C0.358,0.011 0.352,0.012 0.344,0.013C0.331,0.015 0.318,0.017 0.304,0.019C0.291,0.021 0.278,0.022 0.265,0.022C0.263,0.022 0.26,0.022 0.257,0.021C0.254,0.02 0.251,0.018 0.248,0.017C0.244,0.016 0.24,0.015 0.236,0.014C0.231,0.013 0.226,0.012 0.22,0.012C0.213,0.012 0.208,0.011 0.204,0.009C0.2,0.007 0.197,0.005 0.194,0.002C0.191,-0 0.187,-0.003 0.184,-0.006C0.181,-0.009 0.177,-0.012 0.171,-0.014C0.152,-0.023 0.135,-0.034 0.122,-0.046C0.108,-0.058 0.096,-0.072 0.086,-0.087C0.077,-0.103 0.069,-0.119 0.062,-0.137C0.056,-0.155 0.05,-0.174 0.045,-0.193C0.042,-0.207 0.04,-0.221 0.04,-0.234C0.04,-0.252 0.044,-0.269 0.053,-0.284C0.049,-0.293 0.048,-0.302 0.048,-0.311C0.048,-0.317 0.05,-0.326 0.053,-0.338C0.057,-0.35 0.061,-0.363 0.067,-0.375C0.073,-0.387 0.079,-0.399 0.086,-0.408C0.092,-0.418 0.099,-0.424 0.104,-0.427C0.109,-0.428 0.112,-0.43 0.114,-0.431C0.116,-0.432 0.117,-0.435 0.117,-0.44C0.117,-0.444 0.118,-0.448 0.121,-0.45C0.124,-0.453 0.128,-0.455 0.133,-0.457C0.137,-0.458 0.141,-0.46 0.146,-0.461C0.15,-0.462 0.154,-0.464 0.157,-0.465C0.169,-0.471 0.18,-0.476 0.191,-0.48C0.202,-0.484 0.213,-0.487 0.224,-0.49C0.235,-0.493 0.246,-0.495 0.258,-0.496C0.27,-0.497 0.282,-0.498 0.295,-0.498C0.303,-0.498 0.31,-0.497 0.316,-0.495C0.323,-0.493 0.33,-0.491 0.336,-0.488C0.343,-0.484 0.349,-0.481 0.355,-0.477C0.361,-0.474 0.367,-0.47 0.373,-0.466L0.373,-0.466C0.377,-0.466 0.382,-0.464 0.386,-0.462C0.391,-0.46 0.396,-0.459 0.4,-0.458C0.405,-0.452 0.411,-0.447 0.418,-0.442C0.426,-0.437 0.433,-0.432 0.44,-0.426C0.447,-0.421 0.453,-0.415 0.458,-0.408C0.463,-0.402 0.465,-0.395 0.465,-0.387C0.465,-0.385 0.465,-0.384 0.465,-0.383C0.465,-0.382 0.465,-0.38 0.464,-0.378L0.466,-0.381C0.468,-0.38 0.469,-0.378 0.47,-0.376C0.471,-0.374 0.472,-0.371 0.473,-0.368C0.474,-0.366 0.475,-0.363 0.476,-0.36C0.476,-0.357 0.477,-0.355 0.477,-0.354C0.48,-0.349 0.483,-0.346 0.488,-0.343C0.492,-0.341 0.495,-0.337 0.498,-0.333C0.495,-0.329 0.493,-0.325 0.493,-0.32C0.493,-0.314 0.494,-0.309 0.497,-0.303C0.499,-0.298 0.5,-0.293 0.5,-0.287C0.5,-0.281 0.5,-0.274 0.499,-0.268C0.498,-0.262 0.498,-0.256 0.498,-0.25C0.498,-0.245 0.496,-0.241 0.492,-0.238C0.489,-0.236 0.485,-0.233 0.48,-0.231C0.476,-0.229 0.472,-0.228 0.468,-0.226C0.465,-0.224 0.463,-0.221 0.463,-0.217C0.463,-0.215 0.461,-0.213 0.458,-0.214C0.455,-0.214 0.453,-0.214 0.451,-0.214C0.436,-0.214 0.422,-0.216 0.408,-0.219C0.394,-0.223 0.38,-0.225 0.366,-0.225C0.35,-0.225 0.335,-0.224 0.32,-0.221C0.305,-0.219 0.29,-0.218 0.275,-0.218C0.264,-0.218 0.252,-0.219 0.241,-0.219C0.23,-0.22 0.218,-0.22 0.207,-0.22C0.204,-0.22 0.199,-0.22 0.19,-0.219C0.182,-0.217 0.174,-0.216 0.165,-0.214C0.156,-0.212 0.147,-0.21 0.139,-0.208C0.131,-0.205 0.125,-0.203 0.122,-0.201C0.122,-0.199 0.122,-0.197 0.122,-0.194C0.122,-0.179 0.126,-0.163 0.135,-0.146C0.144,-0.13 0.156,-0.115 0.17,-0.102C0.185,-0.089 0.201,-0.078 0.22,-0.069C0.238,-0.06 0.256,-0.056 0.275,-0.056C0.286,-0.056 0.296,-0.055 0.307,-0.054C0.317,-0.054 0.328,-0.051 0.338,-0.047C0.347,-0.052 0.355,-0.056 0.362,-0.062C0.369,-0.068 0.376,-0.073 0.383,-0.08C0.39,-0.086 0.397,-0.092 0.403,-0.099C0.41,-0.105 0.417,-0.112 0.423,-0.118C0.425,-0.119 0.428,-0.121 0.433,-0.122C0.438,-0.123 0.443,-0.124 0.449,-0.125C0.455,-0.126 0.461,-0.126 0.466,-0.127C0.471,-0.127 0.475,-0.127 0.477,-0.127C0.485,-0.127 0.492,-0.126 0.498,-0.124C0.5,-0.117 0.501,-0.109 0.501,-0.102ZM0.428,-0.3C0.428,-0.305 0.427,-0.31 0.425,-0.314C0.424,-0.319 0.422,-0.324 0.421,-0.329C0.42,-0.338 0.419,-0.347 0.419,-0.355C0.419,-0.364 0.418,-0.373 0.415,-0.381L0.415,-0.381C0.415,-0.379 0.414,-0.378 0.413,-0.376C0.411,-0.374 0.41,-0.373 0.407,-0.373C0.403,-0.373 0.4,-0.374 0.396,-0.376C0.392,-0.378 0.389,-0.38 0.387,-0.383C0.374,-0.389 0.363,-0.394 0.353,-0.399C0.343,-0.404 0.333,-0.408 0.323,-0.412C0.314,-0.416 0.303,-0.419 0.292,-0.421C0.281,-0.423 0.268,-0.424 0.253,-0.424C0.252,-0.424 0.25,-0.424 0.249,-0.424C0.248,-0.423 0.247,-0.423 0.246,-0.422L0.249,-0.417L0.245,-0.416C0.236,-0.414 0.229,-0.412 0.223,-0.411C0.217,-0.409 0.212,-0.407 0.208,-0.405C0.203,-0.402 0.198,-0.399 0.194,-0.395C0.19,-0.392 0.184,-0.387 0.177,-0.381C0.174,-0.378 0.17,-0.376 0.167,-0.374C0.163,-0.373 0.148,-0.368 0.145,-0.367C0.141,-0.365 0.139,-0.363 0.136,-0.36C0.134,-0.352 0.131,-0.344 0.126,-0.337C0.122,-0.329 0.12,-0.321 0.12,-0.312C0.12,-0.308 0.122,-0.303 0.126,-0.3C0.13,-0.296 0.135,-0.293 0.141,-0.29C0.148,-0.287 0.155,-0.285 0.162,-0.283C0.17,-0.281 0.178,-0.28 0.185,-0.279C0.193,-0.278 0.199,-0.277 0.206,-0.277C0.212,-0.276 0.217,-0.276 0.221,-0.276C0.233,-0.276 0.245,-0.277 0.257,-0.28C0.269,-0.282 0.282,-0.283 0.294,-0.283C0.307,-0.283 0.319,-0.283 0.332,-0.281C0.345,-0.28 0.357,-0.28 0.37,-0.28C0.373,-0.28 0.378,-0.28 0.385,-0.28C0.391,-0.281 0.398,-0.281 0.404,-0.283C0.41,-0.284 0.416,-0.287 0.421,-0.289C0.425,-0.292 0.428,-0.296 0.428,-0.3Z" style="fill:white;fill-rule:nonzero;"/>
        </g>
        <g transform="matrix(192.654397,0,0,192.654397,1376.343558,249.858078)">
            <path d="M0.565,-0.356C0.565,-0.35 0.564,-0.344 0.562,-0.34C0.559,-0.335 0.556,-0.331 0.553,-0.327C0.55,-0.323 0.547,-0.319 0.544,-0.314C0.541,-0.31 0.539,-0.305 0.538,-0.299C0.535,-0.301 0.532,-0.301 0.529,-0.302C0.525,-0.302 0.522,-0.302 0.519,-0.302C0.511,-0.302 0.503,-0.302 0.496,-0.301C0.488,-0.299 0.481,-0.299 0.473,-0.299C0.464,-0.299 0.457,-0.302 0.451,-0.307C0.446,-0.312 0.441,-0.319 0.438,-0.327C0.434,-0.334 0.432,-0.343 0.431,-0.352C0.429,-0.361 0.429,-0.369 0.429,-0.376C0.429,-0.385 0.43,-0.394 0.433,-0.404C0.431,-0.405 0.428,-0.405 0.426,-0.405C0.422,-0.405 0.419,-0.404 0.417,-0.401C0.415,-0.399 0.413,-0.397 0.41,-0.397C0.407,-0.397 0.404,-0.399 0.402,-0.401C0.4,-0.403 0.397,-0.404 0.394,-0.404C0.389,-0.404 0.383,-0.402 0.375,-0.399C0.368,-0.396 0.361,-0.392 0.354,-0.387C0.347,-0.382 0.341,-0.377 0.336,-0.371C0.331,-0.366 0.329,-0.36 0.329,-0.355C0.322,-0.354 0.315,-0.352 0.309,-0.349C0.303,-0.346 0.298,-0.343 0.292,-0.339C0.288,-0.337 0.284,-0.333 0.281,-0.327C0.278,-0.322 0.276,-0.316 0.273,-0.309C0.271,-0.303 0.268,-0.297 0.266,-0.29C0.263,-0.284 0.261,-0.278 0.257,-0.274C0.252,-0.267 0.247,-0.26 0.243,-0.252C0.239,-0.245 0.237,-0.237 0.237,-0.228C0.237,-0.216 0.239,-0.205 0.242,-0.193C0.246,-0.181 0.248,-0.169 0.248,-0.157C0.248,-0.149 0.247,-0.142 0.246,-0.134C0.245,-0.126 0.244,-0.118 0.244,-0.111C0.244,-0.102 0.246,-0.094 0.249,-0.089C0.252,-0.083 0.257,-0.079 0.262,-0.076C0.268,-0.073 0.274,-0.071 0.281,-0.07C0.288,-0.069 0.296,-0.068 0.303,-0.068C0.311,-0.068 0.342,-0.07 0.348,-0.07C0.35,-0.067 0.352,-0.065 0.352,-0.062C0.352,-0.06 0.352,-0.058 0.352,-0.055C0.351,-0.053 0.351,-0.051 0.35,-0.048C0.349,-0.046 0.349,-0.043 0.349,-0.04C0.349,-0.038 0.349,-0.037 0.35,-0.035C0.354,-0.035 0.359,-0.036 0.362,-0.038C0.366,-0.04 0.368,-0.044 0.37,-0.049C0.372,-0.048 0.374,-0.047 0.376,-0.046C0.378,-0.045 0.379,-0.043 0.379,-0.04C0.379,-0.038 0.378,-0.036 0.377,-0.034C0.376,-0.033 0.372,-0.026 0.371,-0.024C0.37,-0.022 0.369,-0.02 0.369,-0.018C0.369,-0.017 0.369,-0.015 0.37,-0.014C0.37,-0.012 0.37,-0.011 0.371,-0.01C0.369,-0.008 0.367,-0.006 0.364,-0.005C0.361,-0.004 0.358,-0.003 0.355,-0.003C0.35,-0.003 0.346,-0.004 0.343,-0.006C0.339,-0.007 0.336,-0.009 0.333,-0.011C0.33,-0.013 0.328,-0.015 0.326,-0.017C0.323,-0.018 0.321,-0.019 0.317,-0.019C0.316,-0.019 0.314,-0.019 0.312,-0.018C0.309,-0.017 0.306,-0.017 0.304,-0.016C0.301,-0.015 0.299,-0.013 0.297,-0.012C0.295,-0.01 0.294,-0.009 0.294,-0.008C0.294,-0.005 0.295,-0.003 0.297,-0.001C0.298,0.001 0.299,0.003 0.299,0.006C0.299,0.008 0.299,0.01 0.297,0.011C0.295,0.013 0.293,0.013 0.291,0.014C0.289,0.014 0.286,0.015 0.284,0.015C0.281,0.015 0.279,0.015 0.278,0.015C0.265,0.015 0.253,0.014 0.24,0.011C0.227,0.008 0.215,0.007 0.202,0.007C0.196,0.007 0.19,0.008 0.185,0.011C0.179,0.013 0.173,0.015 0.166,0.015C0.162,0.015 0.16,0.014 0.158,0.012C0.156,0.011 0.155,0.009 0.153,0.007C0.152,0.005 0.151,0.004 0.149,0.002C0.147,0.001 0.145,-0 0.142,-0C0.135,-0 0.129,0.001 0.123,0.002C0.117,0.003 0.111,0.005 0.105,0.006C0.099,0.008 0.093,0.009 0.087,0.01C0.081,0.011 0.075,0.012 0.069,0.012C0.066,0.012 0.062,0.011 0.057,0.01C0.053,0.01 0.048,0.008 0.044,0.006C0.04,0.004 0.036,0.002 0.033,-0.001C0.03,-0.004 0.029,-0.007 0.029,-0.012C0.029,-0.014 0.03,-0.018 0.033,-0.022C0.037,-0.026 0.04,-0.03 0.044,-0.034C0.048,-0.038 0.052,-0.042 0.056,-0.045C0.06,-0.048 0.062,-0.049 0.064,-0.049C0.07,-0.049 0.09,-0.048 0.096,-0.048C0.104,-0.048 0.113,-0.05 0.122,-0.052C0.131,-0.055 0.139,-0.059 0.147,-0.064C0.154,-0.07 0.16,-0.076 0.165,-0.084C0.169,-0.092 0.171,-0.101 0.171,-0.11C0.171,-0.115 0.169,-0.131 0.169,-0.135C0.169,-0.144 0.17,-0.152 0.172,-0.161C0.174,-0.169 0.175,-0.178 0.175,-0.186C0.175,-0.197 0.174,-0.209 0.172,-0.221C0.169,-0.233 0.168,-0.245 0.168,-0.257C0.168,-0.268 0.168,-0.278 0.169,-0.289C0.169,-0.299 0.169,-0.31 0.169,-0.321C0.169,-0.326 0.169,-0.333 0.169,-0.342C0.169,-0.352 0.168,-0.361 0.166,-0.371C0.164,-0.38 0.161,-0.388 0.157,-0.396C0.154,-0.403 0.149,-0.406 0.142,-0.406C0.135,-0.406 0.128,-0.405 0.121,-0.404C0.113,-0.402 0.106,-0.401 0.099,-0.401C0.093,-0.401 0.087,-0.402 0.079,-0.403C0.072,-0.403 0.064,-0.405 0.058,-0.407C0.051,-0.41 0.045,-0.413 0.04,-0.418C0.035,-0.423 0.033,-0.429 0.033,-0.436C0.033,-0.444 0.034,-0.451 0.036,-0.456C0.038,-0.461 0.041,-0.465 0.045,-0.467C0.049,-0.47 0.053,-0.472 0.058,-0.473C0.063,-0.474 0.069,-0.474 0.075,-0.474C0.08,-0.474 0.102,-0.473 0.107,-0.473C0.117,-0.473 0.128,-0.474 0.138,-0.475C0.148,-0.476 0.159,-0.477 0.169,-0.477C0.176,-0.477 0.183,-0.476 0.19,-0.476C0.198,-0.475 0.205,-0.473 0.211,-0.471C0.218,-0.469 0.222,-0.466 0.225,-0.46C0.228,-0.455 0.231,-0.449 0.233,-0.444C0.236,-0.438 0.238,-0.433 0.242,-0.429C0.245,-0.425 0.25,-0.422 0.257,-0.422C0.261,-0.422 0.264,-0.423 0.266,-0.425C0.269,-0.427 0.272,-0.429 0.274,-0.431C0.277,-0.433 0.28,-0.436 0.282,-0.438C0.285,-0.439 0.288,-0.441 0.292,-0.441C0.299,-0.442 0.305,-0.445 0.311,-0.448C0.317,-0.452 0.323,-0.455 0.329,-0.459C0.335,-0.463 0.341,-0.466 0.347,-0.469C0.353,-0.472 0.36,-0.473 0.367,-0.473C0.371,-0.473 0.376,-0.474 0.383,-0.475C0.389,-0.476 0.395,-0.477 0.402,-0.479C0.408,-0.481 0.414,-0.483 0.42,-0.485C0.425,-0.488 0.43,-0.491 0.433,-0.494C0.442,-0.493 0.452,-0.491 0.464,-0.488C0.476,-0.484 0.487,-0.479 0.498,-0.473C0.509,-0.467 0.519,-0.46 0.527,-0.452C0.535,-0.444 0.54,-0.435 0.541,-0.425C0.542,-0.419 0.544,-0.413 0.546,-0.407C0.549,-0.402 0.552,-0.396 0.554,-0.391C0.557,-0.385 0.56,-0.38 0.562,-0.374C0.564,-0.369 0.565,-0.363 0.565,-0.356Z" style="fill:white;fill-rule:nonzero;"/>
        </g>
        <g transform="matrix(192.654397,0,0,192.654397,1487.91002,249.858078)">
            <path d="M0.488,-0.173C0.488,-0.163 0.487,-0.153 0.484,-0.144C0.482,-0.135 0.479,-0.125 0.477,-0.116C0.474,-0.108 0.471,-0.098 0.468,-0.089C0.464,-0.08 0.462,-0.07 0.46,-0.061C0.458,-0.044 0.452,-0.031 0.443,-0.02C0.434,-0.009 0.424,-0.001 0.411,0.006C0.399,0.012 0.385,0.017 0.37,0.02C0.355,0.023 0.339,0.025 0.323,0.027C0.307,0.028 0.292,0.03 0.276,0.03C0.261,0.031 0.246,0.032 0.233,0.034C0.229,0.03 0.224,0.026 0.221,0.022C0.218,0.018 0.215,0.014 0.212,0.01C0.209,0.006 0.206,0.003 0.202,0.001C0.199,-0.002 0.194,-0.003 0.188,-0.003C0.186,-0.003 0.184,-0.006 0.183,-0.011C0.182,-0.016 0.178,-0.042 0.177,-0.047C0.176,-0.052 0.174,-0.055 0.172,-0.055C0.165,-0.055 0.159,-0.057 0.155,-0.06C0.15,-0.063 0.147,-0.067 0.144,-0.073C0.142,-0.078 0.14,-0.083 0.139,-0.089C0.139,-0.096 0.138,-0.102 0.138,-0.107C0.138,-0.112 0.137,-0.116 0.135,-0.12C0.133,-0.124 0.125,-0.139 0.123,-0.143C0.121,-0.147 0.12,-0.151 0.12,-0.155C0.12,-0.16 0.12,-0.166 0.12,-0.174C0.121,-0.181 0.123,-0.212 0.123,-0.219C0.124,-0.227 0.124,-0.233 0.124,-0.238C0.124,-0.244 0.125,-0.249 0.126,-0.252C0.128,-0.256 0.129,-0.26 0.131,-0.263C0.133,-0.266 0.135,-0.268 0.136,-0.271C0.138,-0.273 0.139,-0.275 0.139,-0.278C0.139,-0.282 0.138,-0.285 0.136,-0.288C0.134,-0.291 0.133,-0.293 0.133,-0.296C0.133,-0.299 0.134,-0.303 0.137,-0.306C0.139,-0.31 0.141,-0.313 0.142,-0.317C0.145,-0.331 0.147,-0.345 0.147,-0.359C0.147,-0.362 0.147,-0.365 0.147,-0.368C0.147,-0.371 0.146,-0.373 0.146,-0.376C0.139,-0.382 0.13,-0.386 0.121,-0.388C0.112,-0.39 0.103,-0.391 0.094,-0.392C0.085,-0.393 0.076,-0.394 0.067,-0.395C0.059,-0.396 0.052,-0.4 0.046,-0.405C0.041,-0.41 0.037,-0.415 0.033,-0.421C0.029,-0.426 0.024,-0.43 0.017,-0.432C0.013,-0.434 0.009,-0.436 0.006,-0.439C0.003,-0.441 0.001,-0.445 0.001,-0.451C0.001,-0.458 0.003,-0.464 0.008,-0.469C0.013,-0.473 0.018,-0.476 0.025,-0.478C0.031,-0.481 0.038,-0.483 0.045,-0.485C0.052,-0.486 0.058,-0.489 0.063,-0.493C0.068,-0.496 0.074,-0.498 0.081,-0.498C0.083,-0.498 0.095,-0.498 0.098,-0.498C0.106,-0.498 0.113,-0.499 0.118,-0.502C0.123,-0.504 0.128,-0.508 0.131,-0.513C0.134,-0.518 0.136,-0.523 0.137,-0.529C0.138,-0.535 0.139,-0.542 0.139,-0.549C0.139,-0.56 0.138,-0.57 0.137,-0.58C0.135,-0.589 0.135,-0.599 0.135,-0.61C0.135,-0.622 0.136,-0.633 0.14,-0.643C0.143,-0.653 0.149,-0.662 0.158,-0.671C0.16,-0.673 0.169,-0.682 0.172,-0.685C0.174,-0.687 0.177,-0.689 0.18,-0.691C0.183,-0.693 0.186,-0.693 0.188,-0.693C0.19,-0.693 0.192,-0.693 0.194,-0.692C0.195,-0.691 0.197,-0.69 0.198,-0.689C0.205,-0.682 0.21,-0.677 0.212,-0.673C0.214,-0.67 0.215,-0.666 0.215,-0.661C0.215,-0.659 0.215,-0.646 0.215,-0.641C0.215,-0.63 0.216,-0.62 0.219,-0.61C0.221,-0.6 0.223,-0.591 0.223,-0.584C0.223,-0.578 0.221,-0.572 0.219,-0.566C0.217,-0.56 0.215,-0.555 0.215,-0.548C0.215,-0.544 0.216,-0.54 0.219,-0.536C0.221,-0.532 0.223,-0.528 0.226,-0.525C0.229,-0.521 0.231,-0.518 0.233,-0.514C0.236,-0.51 0.237,-0.506 0.237,-0.501C0.24,-0.499 0.247,-0.497 0.259,-0.495C0.27,-0.493 0.283,-0.492 0.297,-0.49C0.311,-0.489 0.325,-0.488 0.339,-0.488C0.354,-0.487 0.366,-0.487 0.375,-0.487C0.383,-0.487 0.39,-0.486 0.395,-0.485C0.399,-0.484 0.403,-0.482 0.406,-0.481C0.409,-0.479 0.412,-0.478 0.415,-0.476C0.417,-0.474 0.421,-0.473 0.425,-0.473C0.43,-0.472 0.434,-0.471 0.438,-0.469C0.442,-0.467 0.444,-0.463 0.444,-0.457C0.444,-0.449 0.442,-0.443 0.438,-0.438C0.434,-0.433 0.429,-0.43 0.423,-0.428C0.417,-0.425 0.41,-0.424 0.403,-0.424C0.396,-0.423 0.39,-0.423 0.384,-0.423C0.375,-0.423 0.365,-0.423 0.356,-0.424C0.347,-0.424 0.337,-0.425 0.328,-0.425C0.312,-0.425 0.298,-0.423 0.285,-0.42C0.272,-0.417 0.261,-0.413 0.252,-0.406C0.243,-0.399 0.236,-0.39 0.231,-0.379C0.226,-0.367 0.223,-0.353 0.223,-0.336C0.223,-0.32 0.224,-0.304 0.226,-0.288C0.228,-0.272 0.229,-0.255 0.229,-0.239C0.229,-0.223 0.23,-0.211 0.23,-0.201C0.231,-0.192 0.233,-0.184 0.236,-0.177C0.24,-0.168 0.243,-0.157 0.246,-0.145C0.249,-0.133 0.252,-0.122 0.256,-0.111C0.26,-0.1 0.266,-0.091 0.273,-0.084C0.281,-0.076 0.291,-0.073 0.306,-0.073C0.311,-0.073 0.317,-0.073 0.325,-0.075C0.333,-0.076 0.341,-0.078 0.35,-0.081C0.358,-0.084 0.365,-0.087 0.371,-0.092C0.376,-0.096 0.379,-0.101 0.379,-0.108C0.379,-0.113 0.378,-0.119 0.375,-0.125C0.371,-0.13 0.37,-0.137 0.37,-0.143C0.37,-0.148 0.371,-0.152 0.373,-0.155C0.375,-0.158 0.378,-0.162 0.381,-0.164C0.385,-0.167 0.388,-0.17 0.392,-0.172C0.396,-0.174 0.399,-0.176 0.403,-0.177C0.409,-0.185 0.416,-0.191 0.424,-0.196C0.432,-0.201 0.441,-0.204 0.451,-0.204C0.457,-0.204 0.463,-0.202 0.469,-0.2C0.476,-0.198 0.481,-0.195 0.486,-0.191C0.487,-0.186 0.488,-0.18 0.488,-0.173Z" style="fill:white;fill-rule:nonzero;"/>
        </g>
    </g>
</svg>
